<?xml version="1.0" encoding="UTF-8" standalone="no"?>
<!-- Created with Inkscape (http://www.inkscape.org/) -->

<svg
   version="1.1"
   id="svg432"
   xml:space="preserve"
   width="6.0990067in"
   height="3.5355897in"
   viewBox="0 0 585.50464 339.41661"
   sodipodi:docname="ddm-fig_ed.svg"
   inkscape:version="1.1.2 (1:1.1+202202050950+0a00cf5339)"
   inkscape:export-filename="/home/hcp4715/hddm_tutorial/temp/ddm-fig_ed.png"
   inkscape:export-xdpi="300.04965"
   inkscape:export-ydpi="300.04965"
   xmlns:inkscape="http://www.inkscape.org/namespaces/inkscape"
   xmlns:sodipodi="http://sodipodi.sourceforge.net/DTD/sodipodi-0.dtd"
   xmlns="http://www.w3.org/2000/svg"
   xmlns:svg="http://www.w3.org/2000/svg"><defs
     id="defs436"><marker
       style="overflow:visible"
       id="Arrow2Mend"
       refX="0"
       refY="0"
       orient="auto"
       inkscape:stockid="Arrow2Mend"
       inkscape:isstock="true"><path
         transform="scale(-0.6)"
         d="M 8.7185878,4.0337352 -2.2072895,0.01601326 8.7185884,-4.0017078 c -1.7454984,2.3720609 -1.7354408,5.6174519 -6e-7,8.035443 z"
         style="fill:context-stroke;fill-rule:evenodd;stroke:context-stroke;stroke-width:0.625;stroke-linejoin:round"
         id="path15373" /></marker><marker
       style="overflow:visible"
       id="Arrow2Lend"
       refX="0"
       refY="0"
       orient="auto"
       inkscape:stockid="Arrow2Lend"
       inkscape:isstock="true"><path
         transform="matrix(-1.1,0,0,-1.1,-1.1,0)"
         d="M 8.7185878,4.0337352 -2.2072895,0.01601326 8.7185884,-4.0017078 c -1.7454984,2.3720609 -1.7354408,5.6174519 -6e-7,8.035443 z"
         style="fill:context-stroke;fill-rule:evenodd;stroke:context-stroke;stroke-width:0.625;stroke-linejoin:round"
         id="path15367" /></marker><marker
       style="overflow:visible"
       id="marker102551"
       refX="0"
       refY="0"
       orient="auto"
       inkscape:stockid="Arrow1Lend"
       inkscape:isstock="true"><path
         transform="matrix(-0.8,0,0,-0.8,-10,0)"
         style="fill:context-stroke;fill-rule:evenodd;stroke:context-stroke;stroke-width:1pt"
         d="M 0,0 5,-5 -12.5,0 5,5 Z"
         id="path102549" /></marker><marker
       style="overflow:visible"
       id="Arrow1Lend"
       refX="0"
       refY="0"
       orient="auto"
       inkscape:stockid="Arrow1Lend"
       inkscape:isstock="true"><path
         transform="matrix(-0.8,0,0,-0.8,-10,0)"
         style="fill:context-stroke;fill-rule:evenodd;stroke:context-stroke;stroke-width:1pt"
         d="M 0,0 5,-5 -12.5,0 5,5 Z"
         id="path3743" /></marker><marker
       style="overflow:visible"
       id="marker54001"
       refX="0"
       refY="0"
       orient="auto"
       inkscape:stockid="Arrow1Mend"
       inkscape:isstock="true"><path
         transform="matrix(-0.4,0,0,-0.4,-4,0)"
         style="fill:context-stroke;fill-rule:evenodd;stroke:context-stroke;stroke-width:1pt"
         d="M 0,0 5,-5 -12.5,0 5,5 Z"
         id="path53999" /></marker><marker
       style="overflow:visible"
       id="marker53526"
       refX="0"
       refY="0"
       orient="auto"
       inkscape:stockid="Arrow1Mend"
       inkscape:isstock="true"><path
         transform="matrix(-0.4,0,0,-0.4,-4,0)"
         style="fill:context-stroke;fill-rule:evenodd;stroke:context-stroke;stroke-width:1pt"
         d="M 0,0 5,-5 -12.5,0 5,5 Z"
         id="path53524" /></marker><marker
       style="overflow:visible"
       id="Arrow1Mend"
       refX="0"
       refY="0"
       orient="auto"
       inkscape:stockid="Arrow1Mend"
       inkscape:isstock="true"><path
         transform="matrix(-0.4,0,0,-0.4,-4,0)"
         style="fill:context-stroke;fill-rule:evenodd;stroke:context-stroke;stroke-width:1pt"
         d="M 0,0 5,-5 -12.5,0 5,5 Z"
         id="path3749" /></marker><marker
       style="overflow:visible"
       id="Arrow1Mstart"
       refX="0"
       refY="0"
       orient="auto"
       inkscape:stockid="Arrow1Mstart"
       inkscape:isstock="true"><path
         transform="matrix(0.4,0,0,0.4,4,0)"
         style="fill:context-stroke;fill-rule:evenodd;stroke:context-stroke;stroke-width:1pt"
         d="M 0,0 5,-5 -12.5,0 5,5 Z"
         id="path3746" /></marker><marker
       style="overflow:visible"
       id="Arrow1Lstart"
       refX="0"
       refY="0"
       orient="auto"
       inkscape:stockid="Arrow1Lstart"
       inkscape:isstock="true"><path
         transform="matrix(0.8,0,0,0.8,10,0)"
         style="fill:context-stroke;fill-rule:evenodd;stroke:context-stroke;stroke-width:1pt"
         d="M 0,0 5,-5 -12.5,0 5,5 Z"
         id="path3740" /></marker><inkscape:path-effect
       effect="powerstroke"
       id="path-effect1047"
       is_visible="true"
       lpeversion="1"
       offset_points="0,18.8679"
       not_jump="false"
       sort_points="true"
       interpolator_type="CubicBezierJohan"
       interpolator_beta="0.2"
       start_linecap_type="zerowidth"
       linejoin_type="extrp_arc"
       miter_limit="4"
       scale_width="1"
       end_linecap_type="zerowidth" /><inkscape:path-effect
       effect="powerstroke"
       id="path-effect1043"
       is_visible="true"
       lpeversion="1"
       offset_points="0,18.8679"
       not_jump="false"
       sort_points="true"
       interpolator_type="CubicBezierJohan"
       interpolator_beta="0.2"
       start_linecap_type="zerowidth"
       linejoin_type="extrp_arc"
       miter_limit="4"
       scale_width="1"
       end_linecap_type="zerowidth" /><clipPath
       clipPathUnits="userSpaceOnUse"
       id="clipPath446"><path
         d="M 3.5,74.625 H 432 v 142.25 H 3.5 Z"
         id="path444" /></clipPath><clipPath
       clipPathUnits="userSpaceOnUse"
       id="clipPath456"><path
         d="M 3.5,74.625 H 432 v 142.25 H 3.5 Z"
         id="path454" /></clipPath><clipPath
       clipPathUnits="userSpaceOnUse"
       id="clipPath466"><path
         d="M 3.5,74.625 H 432 v 142.25 H 3.5 Z"
         id="path464" /></clipPath><clipPath
       clipPathUnits="userSpaceOnUse"
       id="clipPath476"><path
         d="M 3.5,74.625 H 432 v 142.25 H 3.5 Z"
         id="path474" /></clipPath><clipPath
       clipPathUnits="userSpaceOnUse"
       id="clipPath486"><path
         d="M 3.5,74.625 H 432 v 142.25 H 3.5 Z"
         id="path484" /></clipPath><clipPath
       clipPathUnits="userSpaceOnUse"
       id="clipPath496"><path
         d="M 3.5,74.625 H 432 v 142.25 H 3.5 Z"
         id="path494" /></clipPath><clipPath
       clipPathUnits="userSpaceOnUse"
       id="clipPath506"><path
         d="M 3.5,74.625 H 432 v 142.25 H 3.5 Z"
         id="path504" /></clipPath><clipPath
       clipPathUnits="userSpaceOnUse"
       id="clipPath516"><path
         d="M 3.5,74.625 H 432 v 142.25 H 3.5 Z"
         id="path514" /></clipPath><clipPath
       clipPathUnits="userSpaceOnUse"
       id="clipPath526"><path
         d="M 3.5,74.625 H 432 v 142.25 H 3.5 Z"
         id="path524" /></clipPath><clipPath
       clipPathUnits="userSpaceOnUse"
       id="clipPath536"><path
         d="M 3.5,74.625 H 432 v 142.25 H 3.5 Z"
         id="path534" /></clipPath><clipPath
       clipPathUnits="userSpaceOnUse"
       id="clipPath546"><path
         d="M 3.5,74.625 H 432 v 142.25 H 3.5 Z"
         id="path544" /></clipPath><clipPath
       clipPathUnits="userSpaceOnUse"
       id="clipPath556"><path
         d="M 3.5,74.625 H 432 v 142.25 H 3.5 Z"
         id="path554" /></clipPath><clipPath
       clipPathUnits="userSpaceOnUse"
       id="clipPath566"><path
         d="M 3.5,74.625 H 432 v 142.25 H 3.5 Z"
         id="path564" /></clipPath><clipPath
       clipPathUnits="userSpaceOnUse"
       id="clipPath576"><path
         d="M 3.5,74.625 H 432 v 142.25 H 3.5 Z"
         id="path574" /></clipPath><clipPath
       clipPathUnits="userSpaceOnUse"
       id="clipPath586"><path
         d="M 3.5,74.625 H 432 v 142.25 H 3.5 Z"
         id="path584" /></clipPath><clipPath
       clipPathUnits="userSpaceOnUse"
       id="clipPath596"><path
         d="M 3.5,74.625 H 432 v 142.25 H 3.5 Z"
         id="path594" /></clipPath><clipPath
       clipPathUnits="userSpaceOnUse"
       id="clipPath606"><path
         d="M 3.5,74.625 H 432 v 142.25 H 3.5 Z"
         id="path604" /></clipPath><clipPath
       clipPathUnits="userSpaceOnUse"
       id="clipPath616"><path
         d="M 3.5,74.625 H 432 v 142.25 H 3.5 Z"
         id="path614" /></clipPath><clipPath
       clipPathUnits="userSpaceOnUse"
       id="clipPath626"><path
         d="M 3.5,74.625 H 432 v 142.25 H 3.5 Z"
         id="path624" /></clipPath><clipPath
       clipPathUnits="userSpaceOnUse"
       id="clipPath636"><path
         d="M 3.5,74.625 H 432 v 142.25 H 3.5 Z"
         id="path634" /></clipPath><clipPath
       clipPathUnits="userSpaceOnUse"
       id="clipPath656"><path
         d="M 3.5,216.875 H 432 V 288 H 3.5 Z"
         id="path654" /></clipPath><clipPath
       clipPathUnits="userSpaceOnUse"
       id="clipPath666"><path
         d="M 3.5,216.875 H 432 V 288 H 3.5 Z"
         id="path664" /></clipPath><clipPath
       clipPathUnits="userSpaceOnUse"
       id="clipPath686"><path
         d="M 3.5,3.5 H 432 V 74.625 H 3.5 Z"
         id="path684" /></clipPath><clipPath
       clipPathUnits="userSpaceOnUse"
       id="clipPath696"><path
         d="M 3.5,3.5 H 432 V 74.625 H 3.5 Z"
         id="path694" /></clipPath><marker
       style="overflow:visible"
       id="Arrow1Mstart-4"
       refX="0"
       refY="0"
       orient="auto"
       inkscape:stockid="Arrow1Mstart"
       inkscape:isstock="true"><path
         transform="matrix(0.4,0,0,0.4,4,0)"
         style="fill:context-stroke;fill-rule:evenodd;stroke:context-stroke;stroke-width:1pt"
         d="M 0,0 5,-5 -12.5,0 5,5 Z"
         id="path3746-8" /></marker><marker
       style="overflow:visible"
       id="Arrow1Mend-4"
       refX="0"
       refY="0"
       orient="auto"
       inkscape:stockid="Arrow1Mend"
       inkscape:isstock="true"><path
         transform="matrix(-0.4,0,0,-0.4,-4,0)"
         style="fill:context-stroke;fill-rule:evenodd;stroke:context-stroke;stroke-width:1pt"
         d="M 0,0 5,-5 -12.5,0 5,5 Z"
         id="path3749-5" /></marker><marker
       style="overflow:visible"
       id="Arrow1Mstart-9"
       refX="0"
       refY="0"
       orient="auto"
       inkscape:stockid="Arrow1Mstart"
       inkscape:isstock="true"><path
         transform="matrix(0.4,0,0,0.4,4,0)"
         style="fill:context-stroke;fill-rule:evenodd;stroke:context-stroke;stroke-width:1pt"
         d="M 0,0 5,-5 -12.5,0 5,5 Z"
         id="path3746-7" /></marker><marker
       style="overflow:visible"
       id="marker54001-9"
       refX="0"
       refY="0"
       orient="auto"
       inkscape:stockid="Arrow1Mend"
       inkscape:isstock="true"><path
         transform="matrix(-0.4,0,0,-0.4,-4,0)"
         style="fill:context-stroke;fill-rule:evenodd;stroke:context-stroke;stroke-width:1pt"
         d="M 0,0 5,-5 -12.5,0 5,5 Z"
         id="path53999-9" /></marker><marker
       style="overflow:visible"
       id="marker54001-2"
       refX="0"
       refY="0"
       orient="auto"
       inkscape:stockid="Arrow1Mend"
       inkscape:isstock="true"><path
         transform="matrix(-0.4,0,0,-0.4,-4,0)"
         style="fill:context-stroke;fill-rule:evenodd;stroke:context-stroke;stroke-width:1pt"
         d="M 0,0 5,-5 -12.5,0 5,5 Z"
         id="path53999-93" /></marker></defs><sodipodi:namedview
     id="namedview434"
     pagecolor="#ffffff"
     bordercolor="#666666"
     borderopacity="1.0"
     inkscape:pageshadow="2"
     inkscape:pageopacity="0.0"
     inkscape:pagecheckerboard="0"
     showgrid="false"
     units="in"
     fit-margin-top="0.05"
     fit-margin-left="0.05"
     fit-margin-bottom="0.05"
     fit-margin-right="0.05"
     inkscape:zoom="1.0507813"
     inkscape:cx="356.40147"
     inkscape:cy="144.17843"
     inkscape:window-width="1848"
     inkscape:window-height="1016"
     inkscape:window-x="72"
     inkscape:window-y="27"
     inkscape:window-maximized="1"
     inkscape:current-layer="g438"
     inkscape:document-units="in" /><g
     id="g438"
     inkscape:groupmode="layer"
     inkscape:label="ddm-fig"
     transform="matrix(1.3333333,0,0,-1.3333333,4.1713264,385.28201)"><g
       id="g440"><g
         id="g442"
         clip-path="url(#clipPath446)"><path
           d="m 37.78,145.75 4.285,5.777 4.285,8.16947 4.285,6.87508 4.285,-0.24093 4.285,14.72541 4.285,22.72535 4.285,23.74358"
           style="fill:none;stroke:#1f77b4;stroke-width:1.5;stroke-linecap:square;stroke-linejoin:round;stroke-miterlimit:10;stroke-dasharray:none;stroke-opacity:0.25"
           id="path448" /></g></g><g
       id="g450"><g
         id="g452"
         clip-path="url(#clipPath456)"><path
           d="m 37.78,145.75 4.285,11.70357 4.285,15.79749 4.285,28.58794 4.285,17.97033"
           style="fill:none;stroke:#1f77b4;stroke-width:1.5;stroke-linecap:square;stroke-linejoin:round;stroke-miterlimit:10;stroke-dasharray:none;stroke-opacity:0.25"
           id="path458" /></g></g><g
       id="g460"><g
         id="g462"
         clip-path="url(#clipPath466)"><path
           d="m 37.78,145.75 4.285,0.0288 4.285,3.54637 4.285,46.55908 4.285,7.68731 4.285,0.10882 4.285,29.23402"
           style="fill:none;stroke:#1f77b4;stroke-width:1.5;stroke-linecap:square;stroke-linejoin:round;stroke-miterlimit:10;stroke-dasharray:none;stroke-opacity:0.25"
           id="path468" /></g></g><g
       id="g470"><g
         id="g472"
         clip-path="url(#clipPath476)"><path
           d="m 37.78,145.75 4.285,-7.87725 4.285,18.11238 4.285,-2.25764 4.285,6.50316 4.285,21.76639 4.285,12.00614 4.285,13.37159 4.285,20.74585"
           style="fill:none;stroke:#1f77b4;stroke-width:1.5;stroke-linecap:square;stroke-linejoin:round;stroke-miterlimit:10;stroke-dasharray:none;stroke-opacity:0.25"
           id="path478" /></g></g><g
       id="g480"><g
         id="g482"
         clip-path="url(#clipPath486)"><path
           d="m 37.78,145.75 4.285,-18.54264 4.285,-9.82546 4.285,-4.09235 4.285,-5.75096 4.285,-29.098546 4.285,39.676746 4.285,-38.002118 4.285,16.454102 4.285,10.757376 4.285,-16.573102 4.285,25.823672 4.285,-8.94729 4.285,-22.87176 4.285,19.58063 4.285,20.75359 4.285,4.49631 4.285,5.78323 4.285,-21.4758 4.285,7.21664 4.285,17.66588 4.285,20.5572 4.285,2.37425 4.285,14.29674 4.285,-16.86481 4.285,-2.34708 4.285,7.57118 4.285,-31.59402 4.285,-11.70224 4.285,5.83977 4.285,-0.42331 4.285,12.08784 4.285,20.59898 4.285,0.43702 4.285,-21.27369 4.285,-1.12056 4.285,8.33315 4.285,4.97387 4.285,-7.49533 4.285,0.18417 4.285,-5.93992 4.285,-3.70819 4.285,15.65175 4.285,-7.15616 4.285,-6.17809 4.285,-17.26926 4.285,10.72333 4.285,15.91957 4.285,31.92009 4.285,-2.12219 4.285,16.66116 4.285,2.17874 4.285,2.49669 4.285,-5.27298 4.285,5.82195 4.285,-7.93492 4.285,9.92701 4.285,26.91152"
           style="fill:none;stroke:#1f77b4;stroke-width:1.5;stroke-linecap:square;stroke-linejoin:round;stroke-miterlimit:10;stroke-dasharray:none;stroke-opacity:0.25"
           id="path488" /></g></g><g
       id="g490"><g
         id="g492"
         clip-path="url(#clipPath496)"><path
           d="m 37.78,145.75 4.285,35.97053 4.285,8.23828 4.285,29.55405"
           style="fill:none;stroke:#1f77b4;stroke-width:1.5;stroke-linecap:square;stroke-linejoin:round;stroke-miterlimit:10;stroke-dasharray:none;stroke-opacity:0.25"
           id="path498" /></g></g><g
       id="g500"><g
         id="g502"
         clip-path="url(#clipPath506)"><path
           d="m 37.78,145.75 4.285,-9.96349 4.285,-18.418 4.285,-1.32137 4.285,2.59118 4.285,6.93669 4.285,-13.81928 4.285,4.76823 4.285,-10.5787 4.285,9.60156 4.285,-8.9837 4.285,-18.151499 4.285,5.221744 4.285,32.185905 4.285,5.19503 4.285,14.07883 4.285,-4.42416 4.285,7.02962 4.285,20.82187 4.285,41.35515 4.285,25.05189"
           style="fill:none;stroke:#1f77b4;stroke-width:1.5;stroke-linecap:square;stroke-linejoin:round;stroke-miterlimit:10;stroke-dasharray:none;stroke-opacity:0.25"
           id="path508" /></g></g><g
       id="g510"><g
         id="g512"
         clip-path="url(#clipPath516)"><path
           d="m 37.78,145.75 4.285,26.35193 4.285,-21.89909 4.285,16.74835 4.285,35.6332 4.285,-6.79854 4.285,-17.26982 4.285,12.06356 4.285,-12.60502 4.285,2.97258 4.285,-3.93856 4.285,-35.41047 4.285,-0.76619 4.285,33.92472 4.285,13.85282 4.285,2.23428 4.285,8.46272 4.285,33.79686"
           style="fill:none;stroke:#1f77b4;stroke-width:1.5;stroke-linecap:square;stroke-linejoin:round;stroke-miterlimit:10;stroke-dasharray:none;stroke-opacity:0.25"
           id="path518" /></g></g><g
       id="g520"><g
         id="g522"
         clip-path="url(#clipPath526)"><path
           d="m 37.78,145.75 4.285,42.33265 4.285,-16.50833 4.285,-2.3412 4.285,-11.2412 4.285,-9.53911 4.285,6.53024 4.285,18.26001 4.285,-13.63805 4.285,14.60194 4.285,2.95155 4.285,-4.3974 4.285,7.78765 4.285,16.62507 4.285,8.04587 4.285,-13.35637 4.285,7.36516 4.285,-23.6512 4.285,12.88213 4.285,25.18578 4.285,26.62782"
           style="fill:none;stroke:#1f77b4;stroke-width:1.5;stroke-linecap:square;stroke-linejoin:round;stroke-miterlimit:10;stroke-dasharray:none;stroke-opacity:0.25"
           id="path528" /></g></g><g
       id="g530"><g
         id="g532"
         clip-path="url(#clipPath536)"><path
           d="m 37.78,145.75 4.285,-14.36384 4.285,28.02228 4.285,-13.49783 4.285,23.92114 4.285,-10.44238 4.285,21.8294 4.285,13.18406 4.285,-0.86907 4.285,13.5238 4.285,9.83047"
           style="fill:none;stroke:#1f77b4;stroke-width:1.5;stroke-linecap:square;stroke-linejoin:round;stroke-miterlimit:10;stroke-dasharray:none;stroke-opacity:0.25"
           id="path538" /></g></g><g
       id="g540"><g
         id="g542"
         clip-path="url(#clipPath546)"><path
           d="m 37.78,145.75 4.285,-47.697177 4.285,-3.579405 4.285,-17.754931 4.285,40.787933 4.285,-12.19386 4.285,10.81612 4.285,0.25763 4.285,9.44331 4.285,5.58814 4.285,4.0396 4.285,7.93609 4.285,-0.0876 4.285,-7.97135 4.285,0.6174 4.285,5.44428 4.285,13.79946 4.285,50.08464 4.285,30.50598"
           style="fill:none;stroke:#1f77b4;stroke-width:1.5;stroke-linecap:square;stroke-linejoin:round;stroke-miterlimit:10;stroke-dasharray:none;stroke-opacity:0.25"
           id="path548" /></g></g><g
       id="g550"><g
         id="g552"
         clip-path="url(#clipPath556)"><path
           d="m 37.78,145.75 4.285,12.23074 4.285,-19.94984 4.285,0.39624 4.285,6.41136 4.285,3.64762 4.285,-16.56237 4.285,-2.75876 4.285,2.63003 4.285,3.61199 4.285,-0.0674 4.285,-8.87108 4.285,2.46095 4.285,0.85543 4.285,9.59346 4.285,7.36997 4.285,10.11472 4.285,20.80075 4.285,-0.58678 4.285,15.63961 4.285,1.39202 4.285,1.51862 4.285,-7.66402 4.285,16.41918 4.285,-16.04806 4.285,16.1996 4.285,10.7649 4.285,-13.12576 4.285,-8.89378 4.285,3.68194 4.285,-25.9827 4.285,-9.30055 4.285,8.61632 4.285,23.94317 4.285,-14.23013 4.285,-5.79763 4.285,-13.09873 4.285,9.13153 4.285,9.24821 4.285,8.12914 4.285,16.43559 4.285,13.19219"
           style="fill:none;stroke:#1f77b4;stroke-width:1.5;stroke-linecap:square;stroke-linejoin:round;stroke-miterlimit:10;stroke-dasharray:none;stroke-opacity:0.25"
           id="path558" /></g></g><g
       id="g560"><g
         id="g562"
         clip-path="url(#clipPath566)"><path
           d="m 37.78,145.75 4.285,21.56707 4.285,-26.58502 4.285,26.85979 4.285,-0.45781 4.285,-23.53735 4.285,13.84411 4.285,-17.48397 4.285,-0.9791 4.285,24.01557 4.285,12.09254 4.285,15.49787 4.285,8.83651 4.285,14.96583 4.285,17.73403"
           style="fill:none;stroke:#1f77b4;stroke-width:1.5;stroke-linecap:square;stroke-linejoin:round;stroke-miterlimit:10;stroke-dasharray:none;stroke-opacity:0.25"
           id="path568" /></g></g><g
       id="g570"><g
         id="g572"
         clip-path="url(#clipPath576)"><path
           d="m 37.78,145.75 4.285,16.91997 4.285,-47.41269 4.285,13.49568 4.285,1.22652 4.285,6.5568 4.285,19.46357 4.285,35.22883 4.285,16.3921 4.285,21.01386"
           style="fill:none;stroke:#1f77b4;stroke-width:1.5;stroke-linecap:square;stroke-linejoin:round;stroke-miterlimit:10;stroke-dasharray:none;stroke-opacity:0.25"
           id="path578" /></g></g><g
       id="g580"><g
         id="g582"
         clip-path="url(#clipPath586)"><path
           d="m 37.78,145.75 4.285,0.75849 4.285,-25.18943 4.285,9.0313 4.285,11.27307 4.285,12.20091 4.285,-24.52438 4.285,8.42134 4.285,12.09022 4.285,11.85631 4.285,-28.07928 4.285,2.13188 4.285,18.31008 4.285,5.01068 4.285,-29.73249 4.285,-10.64898 4.285,20.5532 4.285,10.15992 4.285,-1.8725 4.285,-1.21644 4.285,-11.9914 4.285,-12.40591 4.285,3.86571 4.285,-3.82819 4.285,30.01113 4.285,21.91247 4.285,9.93885 4.285,9.70852 4.285,-17.45803 4.285,-7.697 4.285,4.97739 4.285,-20.2327 4.285,-10.6577 4.285,-52.749452 4.285,14.560162 4.285,18.38321 4.285,2.58277 4.285,-7.9754 4.285,3.68882 4.285,9.40427 4.285,1.23314 4.285,11.78097 4.285,-25.03156 4.285,0.39066 4.285,7.18369 4.285,-22.11541 4.285,1.52353 4.285,-15.562094 4.285,6.746646 4.285,3.526896 4.285,-10.970671 4.285,-13.564593 4.285,-9.696693"
           style="fill:none;stroke:#d62728;stroke-width:1.5;stroke-linecap:square;stroke-linejoin:round;stroke-miterlimit:10;stroke-dasharray:none;stroke-opacity:0.25"
           id="path588" /></g></g><g
       id="g590"><g
         id="g592"
         clip-path="url(#clipPath596)"><path
           d="m 37.78,145.75 4.285,-14.28102 4.285,5.46449 4.285,34.80335 4.285,1.74017 4.285,-3.24988 4.285,26.63683 4.285,-17.33602 4.285,-28.33457 4.285,-2.91081 4.285,6.02673 4.285,-5.50449 4.285,12.78324 4.285,-23.41784 4.285,-13.17811 4.285,-7.60631 4.285,16.97697 4.285,-28.95151 4.285,9.47274 4.285,25.32219 4.285,-6.52182 4.285,-30.21946 4.285,9.09694 4.285,16.82215 4.285,-33.400591 4.285,-1.146149 4.285,-7.413194 4.285,-7.266079 4.285,-4.613561 4.285,12.508242 4.285,15.727712 4.285,0.81618 4.285,-13.735093 4.285,-3.196532 4.285,-4.913547 4.285,17.958682 4.285,-14.847323 4.285,-5.48324 4.285,-14.046061"
           style="fill:none;stroke:#d62728;stroke-width:1.5;stroke-linecap:square;stroke-linejoin:round;stroke-miterlimit:10;stroke-dasharray:none;stroke-opacity:0.25"
           id="path598" /></g></g><g
       id="g600"><g
         id="g602"
         clip-path="url(#clipPath606)"><path
           d="m 37.78,145.75 4.285,-20.31072 4.285,-9.64639 4.285,-3.58822 4.285,-9.57005 4.285,-12.571247 4.285,-17.669025"
           style="fill:none;stroke:#d62728;stroke-width:1.5;stroke-linecap:square;stroke-linejoin:round;stroke-miterlimit:10;stroke-dasharray:none;stroke-opacity:0.25"
           id="path608" /></g></g><g
       id="g610"><g
         id="g612"
         clip-path="url(#clipPath616)"><path
           d="m 37.78,145.75 4.285,11.41213 4.285,11.94032 4.285,31.87675 4.285,-28.22089 4.285,31.81954 4.285,12.14197 4.285,-14.41395 4.285,-9.85059 4.285,-15.33094 4.285,12.18634 4.285,-7.5524 4.285,-10.25223 4.285,33.64256 4.285,-26.79957 4.285,0.20753 4.285,-4.44373 4.285,-4.52618 4.285,12.22741 4.285,2.1393 4.285,5.081 4.285,-12.47872 4.285,6.41304 4.285,-8.31262 4.285,3.55449 4.285,8.86507 4.285,-15.69462 4.285,-6.25456 4.285,-39.02454 4.285,-16.68593 4.285,-14.906564 4.285,-30.023751"
           style="fill:none;stroke:#d62728;stroke-width:1.5;stroke-linecap:square;stroke-linejoin:round;stroke-miterlimit:10;stroke-dasharray:none;stroke-opacity:0.25"
           id="path618" /></g></g><g
       id="g620"><g
         id="g622"
         clip-path="url(#clipPath626)"><path
           d="M 37.78,145.75 42.065,131.39301 46.35,103.9122 50.635,92.965127 54.92,84.807094 59.205,75.922768 63.49,63.802981"
           style="fill:none;stroke:#d62728;stroke-width:1.5;stroke-linecap:square;stroke-linejoin:round;stroke-miterlimit:10;stroke-dasharray:none;stroke-opacity:0.25"
           id="path628" /></g></g><g
       id="g630"><g
         id="g632"
         clip-path="url(#clipPath636)"><path
           d="m 37.78,145.75 4.285,-23.82858 4.285,5.6708 4.285,-18.96145 4.285,-0.98033 4.285,-7.07653 4.285,1.22856 4.285,23.44495 4.285,2.39153 4.285,23.36181 4.285,-8.56493 4.285,-17.39199 4.285,6.22883 4.285,-36.296387 4.285,12.515467 4.285,-27.731574 4.285,-10.677516"
           style="fill:none;stroke:#d62728;stroke-width:1.5;stroke-linecap:square;stroke-linejoin:round;stroke-miterlimit:10;stroke-dasharray:none;stroke-opacity:0.25"
           id="path638" /></g></g><g
       id="g640"><path
         d="M 3.5,74.625 H 432"
         style="fill:none;stroke:#000000;stroke-width:0.8;stroke-linecap:square;stroke-linejoin:miter;stroke-miterlimit:10;stroke-dasharray:none;stroke-opacity:1"
         id="path646" /><path
         d="M 3.5,216.875 H 432"
         style="fill:none;stroke:#000000;stroke-width:0.8;stroke-linecap:square;stroke-linejoin:miter;stroke-miterlimit:10;stroke-dasharray:none;stroke-opacity:1"
         id="path648" /></g><g
       id="g650"><g
         id="g652"
         clip-path="url(#clipPath656)"><path
           d="m 22.977273,216.87506 v -6e-5 h 0.780652 0.780652 0.780652 0.780653 0.780652 0.780652 0.780652 0.780652 0.780653 0.780652 0.780652 0.780652 0.780653 0.780652 0.780652 0.780652 0.780652 0.780653 0.780652 0.780652 0.780652 0.780652 0.780653 0.780652 0.780652 0.780652 0.780652 0.780653 0.780652 0.780652 0.780652 0.780653 0.780652 0.780652 0.780652 0.780652 0.780653 0.780652 0.780652 0.780652 0.780652 0.780653 0.780652 0.780652 0.780652 0.780653 0.780652 0.780652 0.780652 0.780652 0.780653 0.780652 0.780652 0.780652 0.780652 0.780653 0.780652 0.780652 0.780652 0.780653 0.780652 0.780652 0.780652 0.780652 0.780653 0.780652 0.780652 0.780652 0.780652 0.780653 0.780652 0.780652 0.780652 0.780653 0.780652 0.780652 0.780652 0.780652 0.780653 0.780652 0.780652 0.780652 0.780652 0.780653 0.780652 0.780652 0.780652 0.780653 0.780652 0.780652 0.780652 0.780652 0.780653 0.780652 0.780652 0.780652 0.780652 0.780653 0.78065 0.78065 0.78066 0.78065 0.78065 0.78065 0.78066 0.78065 0.78065 0.78065 0.78065 0.78066 0.78065 0.78065 0.78065 0.78066 0.78065 0.78065 0.78065 0.78065 0.78066 0.78065 0.78065 0.78065 0.78066 0.78065 0.78065 0.78065 0.78065 0.78066 0.78065 0.78065 0.78065 0.78065 0.78066 0.78065 0.78065 0.78065 0.78066 0.78065 0.78065 0.78065 0.78065 0.78066 0.78065 0.78065 0.78065 0.78066 0.78065 0.78065 0.78065 0.78065 0.78066 0.78065 0.78065 0.78065 0.78066 0.78065 0.78065 0.78065 0.78065 0.78066 0.78065 0.78065 0.78065 0.78066 0.78065 0.78065 0.78065 0.78065 0.78066 0.78065 0.78065 0.78065 0.78066 0.78065 0.78065 0.78065 0.78065 0.78066 0.78065 0.78065 0.78065 0.78066 0.78065 0.78065 0.78065 0.78065 0.78066 0.78065 0.78065 0.78065 0.78066 0.78065 0.78065 0.78065 0.78065 0.78066 0.78065 0.78065 0.78065 0.78065 0.78066 0.78065 0.78065 0.78065 0.78066 0.78065 0.78065 0.78065 0.78065 0.78066 0.78065 0.78065 0.78065 0.78066 0.78065 0.78065 0.78065 0.78065 0.78066 0.78065 0.78065 0.78065 0.78066 0.78065 0.78065 0.78065 0.78065 0.78066 0.78065 0.78065 0.78065 0.78066 0.78065 0.78065 0.78065 0.78065 0.78066 0.78065 0.78065 0.78065 0.78066 0.78065 0.78065 0.78065 0.78065 0.78066 0.78065 0.78065 0.78065 0.78066 0.78065 0.78065 0.78065 0.78065 0.78066 0.78065 0.78065 0.78065 0.78066 0.78065 0.78065 0.78065 0.78065 0.78066 0.78065 0.78065 0.78065 0.78066 0.78065 0.78065 0.78065 0.78065 0.78066 0.78065 0.78065 0.78065 0.78066 0.78065 0.78065 0.78065 0.78065 0.78066 0.78065 0.78065 0.78065 0.78066 0.78065 0.78065 0.78065 0.78066 0.78065 0.78065 0.78065 0.78065 0.78066 0.78065 0.78065 0.78065 0.78066 0.78065 0.78065 0.78065 0.78065 0.78066 0.78065 0.78065 0.78065 0.78065 0.78066 0.78065 0.78065 0.78065 0.78066 0.78065 0.78065 0.78065 0.78065 0.78066 0.78065 0.78065 0.78065 0.78066 0.78065 0.78065 0.78065 0.78065 0.78066 0.78065 0.78065 0.78065 0.78065 0.78066 0.78065 0.78065 0.78065 0.78066 0.78065 0.78065 0.78065 0.78065 0.78066 0.78065 0.78065 0.78065 0.78066 0.78065 0.78065 0.78065 0.78065 0.78066 0.78065 0.78065 0.78065 0.78066 0.78065 0.78065 0.78065 0.78065 0.78066 0.78065 0.78065 0.78065 0.78066 0.78065 0.78065 0.78065 0.78065 0.78066 0.78065 0.78065 0.78065 0.78066 0.78065 0.78065 0.78065 0.78065 0.78066 0.78065 0.78065 0.78065 0.78066 0.78065 0.78065 0.78065 0.78065 0.78066 0.78065 0.78065 0.78065 0.78066 0.78065 0.78065 0.78065 0.78066 0.78065 0.78065 0.78065 0.78065 0.78066 0.78065 0.78065 0.78065 0.78065 0.78066 0.78065 0.78065 0.78065 0.78066 0.78065 0.78065 0.78065 0.78066 0.78065 0.78065 0.78065 0.78065 0.78066 0.78065 0.78065 0.78065 0.78065 0.78066 0.78065 0.78065 0.78065 0.78066 0.78065 0.78065 0.78065 0.78066 0.78065 0.78065 0.78065 0.78065 0.78066 0.78065 0.78065 0.78065 0.78065 0.78066 0.78065 0.78065 0.78065 0.78066 0.78065 0.78065 0.78065 0.78065 0.78066 0.78065 0.78065 0.78065 0.78065 0.78066 0.78065 0.78065 0.78065 0.78066 0.78065 0.78065 0.78065 0.78065 0.78066 0.78065 0.78065 0.78065 0.78066 0.78065 0.78065 0.78065 0.78066 0.78065 0.78065 0.78065 0.78065 0.78066 0.78065 0.78065 0.78065 0.78065 0.78066 0.78065 0.78065 0.78065 0.78066 0.78065 0.78065 0.78065 0.78065 0.78066 0.78065 0.78065 0.78065 0.78066 0.78065 0.78065 0.78065 0.78065 0.78066 v 0 0 h -0.78066 -0.78065 -0.78065 -0.78065 -0.78065 -0.78066 -0.78065 -0.78065 -0.78065 -0.78066 -0.78065 -0.78065 -0.78065 -0.78065 l -0.78066,1e-5 h -0.78065 l -0.78065,1e-5 h -0.78065 l -0.78066,1e-5 -0.78065,2e-5 -0.78065,2e-5 -0.78065,4e-5 -0.78065,4e-5 -0.78066,7e-5 -0.78065,9e-5 -0.78065,1.3e-4 -0.78065,1.6e-4 -0.78065,2.3e-4 -0.78066,3e-4 -0.78065,4.1e-4 -0.78065,5.2e-4 -0.78065,6.9e-4 -0.78066,8.7e-4 -0.78065,10e-4 -0.78065,0.001 -0.78065,0.002 -0.78066,0.002 -0.78065,0.003 -0.78065,0.003 -0.78065,0.004 -0.78065,0.005 -0.78066,0.006 -0.78065,0.007 -0.78065,0.008 -0.78065,0.009 -0.78066,0.01 -0.78065,0.0112 -0.78065,0.0125 -0.78065,0.0138 -0.78065,0.015 -0.78066,0.0161 -0.78065,0.0171 -0.78065,0.0179 -0.78065,0.0185 -0.78065,0.0189 -0.78066,0.019 -0.78065,0.0188 -0.78065,0.0182 -0.78065,0.0172 -0.78066,0.016 -0.78065,0.0143 -0.78065,0.0124 -0.78065,0.0102 -0.78065,0.008 -0.78066,0.005 -0.78065,0.002 -0.78065,-5.5e-4 -0.78065,-0.003 -0.78065,-0.006 -0.78066,-0.009 -0.78065,-0.011 -0.78065,-0.0131 -0.78065,-0.0148 -0.78066,-0.0162 -0.78065,-0.0173 -0.78065,-0.018 -0.78065,-0.0183 -0.78066,-0.0182 -0.78065,-0.0178 -0.78065,-0.017 -0.78065,-0.016 -0.78065,-0.0147 -0.78066,-0.0132 -0.78065,-0.0115 -0.78065,-0.01 -0.78065,-0.008 -0.78065,-0.006 -0.78066,-0.004 -0.78065,-0.001 -0.78065,8.7e-4 -0.78065,0.003 -0.78066,0.005 -0.78065,0.007 -0.78065,0.01 -0.78065,0.0116 -0.78066,0.0135 -0.78065,0.0154 -0.78065,0.0171 -0.78065,0.0186 -0.78065,0.02 -0.78066,0.0211 -0.78065,0.022 -0.78065,0.0226 -0.78065,0.0229 -0.78065,0.023 -0.78066,0.0226 -0.78065,0.022 -0.78065,0.021 -0.78065,0.0197 -0.78066,0.0181 -0.78065,0.0163 -0.78065,0.0142 -0.78065,0.0119 -0.78066,0.009 -0.78065,0.007 -0.78065,0.004 -0.78065,0.002 -0.78065,-5.6e-4 -0.78066,-0.003 -0.78065,-0.005 -0.78065,-0.007 -0.78065,-0.008 -0.78066,-0.009 -0.78065,-0.01 -0.78065,-0.0104 -0.78065,-0.0104 -0.78065,-0.0101 -0.78066,-0.009 -0.78065,-0.008 -0.78065,-0.007 -0.78065,-0.006 -0.78066,-0.004 -0.78065,-0.003 -0.78065,-10e-4 -0.78065,5.6e-4 -0.78065,0.002 -0.78066,0.003 -0.78065,0.005 -0.78065,0.006 -0.78065,0.006 -0.78066,0.007 -0.78065,0.007 -0.78065,0.007 -0.78065,0.006 -0.78065,0.006 -0.78066,0.005 -0.78065,0.003 -0.78065,0.002 -0.78065,6.3e-4 -0.78066,-10e-4 -0.78065,-0.003 -0.78065,-0.004 -0.78065,-0.006 -0.78065,-0.008 -0.78066,-0.01 -0.78065,-0.011 -0.78065,-0.0123 -0.78065,-0.0134 -0.78066,-0.0142 -0.78065,-0.0147 -0.78065,-0.0149 -0.78065,-0.0147 -0.78065,-0.0142 -0.78066,-0.0132 -0.78065,-0.0119 -0.78065,-0.0102 -0.78065,-0.008 -0.78066,-0.006 -0.78065,-0.003 -0.78065,5.4e-4 -0.78065,0.004 -0.78065,0.008 -0.78066,0.0117 -0.78065,0.0158 -0.78065,0.02 -0.78065,0.0241 -0.78065,0.0283 -0.78066,0.0322 -0.78065,0.0361 -0.78065,0.0396 -0.78065,0.0428 -0.78066,0.0457 -0.78065,0.0481 -0.78065,0.0501 -0.78065,0.0517 -0.78065,0.0528 -0.78066,0.0534 -0.78065,0.0537 -0.78065,0.0536 -0.78065,0.0531 -0.78066,0.0526 -0.78065,0.0519 -0.78065,0.0512 -0.78065,0.0505 -0.78065,0.0501 -0.78066,0.0499 -0.78065,0.0502 -0.78065,0.0508 -0.78065,0.0518 -0.78065,0.0533 -0.78066,0.0552 -0.78065,0.0575 -0.78065,0.06 -0.78065,0.0627 -0.78066,0.0654 -0.78065,0.068 -0.78065,0.0703 -0.78065,0.0722 -0.78065,0.0735 -0.78066,0.0741 -0.78065,0.0739 -0.78065,0.0729 -0.78065,0.071 -0.78066,0.0682 -0.78065,0.0647 -0.78065,0.0605 -0.78065,0.0558 -0.78066,0.0508 -0.78065,0.0457 -0.78065,0.0407 -0.78065,0.036 -0.78065,0.0319 -0.78066,0.0286 -0.78065,0.0261 -0.78065,0.0246 -0.78065,0.0241 -0.78066,0.0247 -0.78065,0.0262 -0.78065,0.0287 -0.78065,0.0319 -0.78065,0.0357 -0.78066,0.0399 -0.78065,0.0442 -0.78065,0.0485 -0.78065,0.0526 -0.78066,0.0564 -0.78065,0.0596 -0.78065,0.0622 -0.78065,0.0642 -0.78065,0.0656 -0.78066,0.0665 -0.78065,0.0668 -0.78065,0.0668 -0.78065,0.0666 -0.78066,0.0663 -0.78065,0.0661 -0.78065,0.0661 -0.78065,0.0664 -0.78065,0.067 -0.78066,0.0681 -0.78065,0.0696 -0.78065,0.0714 -0.78065,0.0735 -0.78066,0.0758 -0.78065,0.0781 -0.78065,0.0803 -0.78065,0.0822 -0.78065,0.0838 -0.78066,0.0848 -0.78065,0.0852 -0.78065,0.0849 -0.78065,0.0839 -0.78066,0.0821 -0.78065,0.0796 -0.78065,0.0765 -0.78065,0.073 -0.78065,0.069 -0.78066,0.0649 -0.78065,0.0607 -0.78065,0.0567 -0.78065,0.0529 -0.78066,0.0495 -0.78065,0.0466 -0.78065,0.0442 -0.78065,0.0425 -0.78065,0.0412 -0.78066,0.0405 -0.78065,0.0402 -0.78065,0.0402 -0.78065,0.0404 -0.78066,0.0407 -0.78065,0.041 -0.78065,0.0411 -0.78065,0.041 -0.78065,0.0406 -0.78066,0.04 -0.78065,0.0391 -0.78065,0.038 -0.78065,0.0369 -0.78066,0.0359 -0.78065,0.0352 -0.78065,0.0349 -0.78065,0.0351 -0.78065,0.0361 -0.78066,0.0381 -0.78065,0.041 -0.78065,0.0451 -0.78065,0.0504 -0.78066,0.0569 -0.78065,0.0646 -0.78065,0.0734 -0.78065,0.0833 -0.78065,0.0942 -0.78066,0.10598 -0.78065,0.11844 -0.78065,0.13148 -0.78065,0.14498 -0.78065,0.15877 -0.78066,0.17271 -0.78065,0.18666 -0.78065,0.20049 -0.78065,0.21405 -0.78066,0.22723 -0.78065,0.23989 -0.78065,0.25191 -0.78065,0.26318 -0.78065,0.27361 -0.78066,0.28309 -0.78065,0.29156 -0.78065,0.29894 -0.78065,0.30523 -0.78066,0.31039 -0.78065,0.31444 -0.78065,0.3174 -0.78065,0.31935 -0.78065,0.32033 -0.78066,0.32046 -0.78065,0.3198 -0.78065,0.31848 -0.78065,0.31659 -0.78066,0.3142 -0.78065,0.31141 -0.78065,0.30829 -0.78065,0.30486 -0.78065,0.3012 -0.78066,0.29732 -0.78065,0.29324 -0.78065,0.289 -0.78065,0.28464 -0.78066,0.2802 -0.78065,0.27577 -0.78065,0.27146 -0.78065,0.2674 -0.78065,0.26374 -0.78066,0.26072 -0.78065,0.25851 -0.78065,0.25737 -0.78065,0.25752 -0.78066,0.25918 -0.78065,0.26253 -0.78065,0.26772 -0.78065,0.27485 -0.78065,0.28393 -0.78066,0.29491 -0.78065,0.30766 -0.78065,0.32199 -0.78065,0.33762 -0.78066,0.35423 -0.78065,0.37145 -0.78065,0.3889 -0.78065,0.4062 -0.78065,0.42297 -0.78066,0.4389 -0.78065,0.45372 -0.78065,0.46724 -0.78065,0.47934 -0.78066,0.49001 -0.78065,0.49927 -0.78065,0.50728 -0.78065,0.51423 -0.78065,0.52034 -0.78066,0.52591 -0.78065,0.53123 -0.78065,0.53658 -0.78065,0.54225 -0.78065,0.54846 -0.78066,0.55546 -0.78065,0.5634 -0.78065,0.5724 -0.78065,0.58259 -0.78066,0.594 -0.78065,0.60671 -0.78065,0.62071 -0.78065,0.63607 -0.78065,0.65279 -0.78066,0.67092 -0.78065,0.69048 -0.78065,0.71154 -0.78065,0.73412 -0.78066,0.75825 -0.78065,0.78392 -0.78065,0.8111 -0.78065,0.83966 -0.78065,0.86944 -0.78066,0.90019 -0.78065,0.93154 -0.78065,0.96306 -0.78065,0.99424 -0.78066,1.02443 -0.78065,1.05298 -0.78065,1.07912 -0.780653,1.10209 -0.780652,1.12109 -0.780652,1.13537 -0.780652,1.14415 -0.780652,1.14675 -0.780653,1.14255 -0.780652,1.131 -0.780652,1.11165 -0.780652,1.08414 -0.780652,1.04818 -0.780653,1.00361 -0.780652,0.95029 -0.780652,0.88819 -0.780652,0.81732 -0.780653,0.73771 -0.780652,0.64949 -0.780652,0.55274 -0.780652,0.44765 -0.780652,0.33442 -0.780653,0.21329 -0.780652,0.0846 -0.780652,-0.0513 -0.780652,-0.19379 -0.780652,-0.34233 -0.780653,-0.4961 -0.780652,-0.65417 -0.780652,-0.81543 -0.780652,-0.97857 -0.780653,-1.14214 -0.780652,-1.30453 -0.780652,-1.46394 -0.780652,-1.61855 -0.780652,-1.7664 -0.780653,-1.90554 -0.780652,-2.03404 -0.780652,-2.15007 -0.780652,-2.25194 -0.780652,-2.33811 -0.780653,-2.40735 -0.780652,-2.45867 -0.780652,-2.49141 -0.780652,-2.50526 -0.780653,-2.50028 -0.780652,-2.47684 -0.780652,-2.4357 -0.780652,-2.37794 -0.780652,-2.30491 -0.780653,-2.21822 -0.780652,-2.11967 -0.780652,-2.01121 -0.780652,-1.89489 -0.780652,-1.77278 -0.780653,-1.6469 -0.780652,-1.51927 -0.780652,-1.39172 -0.780652,-1.26596 -0.780653,-1.14349 -0.780652,-1.02562 -0.780652,-0.91345 -0.780652,-0.80782 -0.780652,-0.70937 -0.780653,-0.61851 -0.780652,-0.53547 -0.780652,-0.46029 -0.780652,-0.39284 -0.780652,-0.33289 -0.780653,-0.28005 -0.780652,-0.23391 -0.780652,-0.19397 -0.780652,-0.15967 -0.780653,-0.13049 -0.780652,-0.10587 -0.780652,-0.0853 -0.780652,-0.0682 -0.780652,-0.0541 -0.780653,-0.0426 -0.780652,-0.0333 -0.780652,-0.0258 -0.780652,-0.0199 -0.780652,-0.0152 -0.780653,-0.0115 -0.780652,-0.009 -0.780652,-0.006 -0.780652,-0.005 -0.780652,-0.004 -0.780653,-0.003 -0.780652,-0.002 -0.780652,-10e-4 -0.780652,-9.6e-4 -0.780653,-6.8e-4 -0.780652,-4.8e-4 -0.780652,-3.4e-4 -0.780652,-2.3e-4 -0.780652,-1.6e-4 -0.780653,-1.1e-4 -0.780652,-7e-5 -0.780652,-5e-5 -0.780652,-3e-5 z"
           style="fill:#1f77b4;fill-opacity:0.5;fill-rule:nonzero;stroke:none"
           id="path658" /></g></g><g
       id="g660"><g
         id="g662"
         clip-path="url(#clipPath666)"><path
           d="m 22.977273,216.87506 16.393696,0.10501 3.122609,0.19816 2.341957,0.32162 2.341956,0.58755 1.561305,0.61294 1.561304,0.85313 1.561305,1.15398 1.561304,1.51719 1.561304,1.93907 1.561305,2.40945 1.561304,2.91099 1.561305,3.41968 1.561304,3.9061 2.341957,6.6428 3.122609,9.79076 3.903261,12.2008 2.341956,6.43605 1.561305,3.67194 1.561304,3.08249 1.561305,2.44667 1.561304,1.794 0.780652,0.65417 0.780653,0.4961 0.780652,0.34233 0.780652,0.19379 0.780652,0.0513 0.780652,-0.0846 0.780653,-0.21329 1.561304,-0.78207 1.561304,-1.20223 1.561305,-1.55503 1.561304,-1.83848 2.341957,-3.13593 9.367828,-13.18542 2.34196,-2.79479 2.34195,-2.5202 3.12261,-2.98783 3.12261,-2.65026 3.90326,-2.97641 4.68391,-3.27738 4.68392,-3.05704 3.12261,-1.8392 3.1226,-1.58952 3.12261,-1.3215 3.90326,-1.38394 9.36783,-3.22551 6.24522,-2.44711 9.36783,-3.71947 3.90326,-1.25582 3.12261,-0.77391 3.1226,-0.55367 3.90326,-0.4216 5.46457,-0.30282 15.61304,-0.80026 6.24522,-0.50328 17.17435,-1.64858 8.58718,-0.62654 14.83239,-0.77566 10.92913,-0.91094 17.955,-1.07245 6.24522,-0.0516 22.63891,0.12954 10.14848,0.0487 9.36783,0.03 10.14848,-0.25743 8.58717,-0.12243 8.58717,0.11814 10.14848,0.14321 8.58718,-0.1577 11.70978,-0.16957 29.66478,-0.0162 h 0.78066 v 0"
           style="fill:none;stroke:#1f77b4;stroke-width:1.5;stroke-linecap:square;stroke-linejoin:round;stroke-miterlimit:10;stroke-dasharray:none;stroke-opacity:1"
           id="path668" /></g></g><g
       id="g670"><path
         d="M 3.5,216.875 H 432"
         style="fill:none;stroke:#000000;stroke-width:0.8;stroke-linecap:square;stroke-linejoin:miter;stroke-miterlimit:10;stroke-dasharray:none;stroke-opacity:1"
         id="path676" /></g><g
       id="g680"><g
         id="g682"
         clip-path="url(#clipPath686)"><path
           d="M 22.977273,74.624778 V 74.625 h 0.780652 0.780652 0.780652 0.780653 0.780652 0.780652 0.780652 0.780652 0.780653 0.780652 0.780652 0.780652 0.780653 0.780652 0.780652 0.780652 0.780652 0.780653 0.780652 0.780652 0.780652 0.780652 0.780653 0.780652 0.780652 0.780652 0.780652 0.780653 0.780652 0.780652 0.780652 0.780653 0.780652 0.780652 0.780652 0.780652 0.780653 0.780652 0.780652 0.780652 0.780652 0.780653 0.780652 0.780652 0.780652 0.780653 0.780652 0.780652 0.780652 0.780652 0.780653 0.780652 0.780652 0.780652 0.780652 0.780653 0.780652 0.780652 0.780652 0.780653 0.780652 0.780652 0.780652 0.780652 0.780653 0.780652 0.780652 0.780652 0.780652 0.780653 0.780652 0.780652 0.780652 0.780653 0.780652 0.780652 0.780652 0.780652 0.780653 0.780652 0.780652 0.780652 0.780652 0.780653 0.780652 0.780652 0.780652 0.780653 0.780652 0.780652 0.780652 0.780652 0.780653 0.780652 0.780652 0.780652 0.780652 0.780653 0.78065 0.78065 0.78066 0.78065 0.78065 0.78065 0.78066 0.78065 0.78065 0.78065 0.78065 0.78066 0.78065 0.78065 0.78065 0.78066 0.78065 0.78065 0.78065 0.78065 0.78066 0.78065 0.78065 0.78065 0.78066 0.78065 0.78065 0.78065 0.78065 0.78066 0.78065 0.78065 0.78065 0.78065 0.78066 0.78065 0.78065 0.78065 0.78066 0.78065 0.78065 0.78065 0.78065 0.78066 0.78065 0.78065 0.78065 0.78066 0.78065 0.78065 0.78065 0.78065 0.78066 0.78065 0.78065 0.78065 0.78066 0.78065 0.78065 0.78065 0.78065 0.78066 0.78065 0.78065 0.78065 0.78066 0.78065 0.78065 0.78065 0.78065 0.78066 0.78065 0.78065 0.78065 0.78066 0.78065 0.78065 0.78065 0.78065 0.78066 0.78065 0.78065 0.78065 0.78066 0.78065 0.78065 0.78065 0.78065 0.78066 0.78065 0.78065 0.78065 0.78066 0.78065 0.78065 0.78065 0.78065 0.78066 0.78065 0.78065 0.78065 0.78065 0.78066 0.78065 0.78065 0.78065 0.78066 0.78065 0.78065 0.78065 0.78065 0.78066 0.78065 0.78065 0.78065 0.78066 0.78065 0.78065 0.78065 0.78065 0.78066 0.78065 0.78065 0.78065 0.78066 0.78065 0.78065 0.78065 0.78065 0.78066 0.78065 0.78065 0.78065 0.78066 0.78065 0.78065 0.78065 0.78065 0.78066 0.78065 0.78065 0.78065 0.78066 0.78065 0.78065 0.78065 0.78065 0.78066 0.78065 0.78065 0.78065 0.78066 0.78065 0.78065 0.78065 0.78065 0.78066 0.78065 0.78065 0.78065 0.78066 0.78065 0.78065 0.78065 0.78065 0.78066 0.78065 0.78065 0.78065 0.78066 0.78065 0.78065 0.78065 0.78065 0.78066 0.78065 0.78065 0.78065 0.78066 0.78065 0.78065 0.78065 0.78065 0.78066 0.78065 0.78065 0.78065 0.78066 0.78065 0.78065 0.78065 0.78066 0.78065 0.78065 0.78065 0.78065 0.78066 0.78065 0.78065 0.78065 0.78066 0.78065 0.78065 0.78065 0.78065 0.78066 0.78065 0.78065 0.78065 0.78065 0.78066 0.78065 0.78065 0.78065 0.78066 0.78065 0.78065 0.78065 0.78065 0.78066 0.78065 0.78065 0.78065 0.78066 0.78065 0.78065 0.78065 0.78065 0.78066 0.78065 0.78065 0.78065 0.78065 0.78066 0.78065 0.78065 0.78065 0.78066 0.78065 0.78065 0.78065 0.78065 0.78066 0.78065 0.78065 0.78065 0.78066 0.78065 0.78065 0.78065 0.78065 0.78066 0.78065 0.78065 0.78065 0.78066 0.78065 0.78065 0.78065 0.78065 0.78066 0.78065 0.78065 0.78065 0.78066 0.78065 0.78065 0.78065 0.78065 0.78066 0.78065 0.78065 0.78065 0.78066 0.78065 0.78065 0.78065 0.78065 0.78066 0.78065 0.78065 0.78065 0.78066 0.78065 0.78065 0.78065 0.78065 0.78066 0.78065 0.78065 0.78065 0.78066 0.78065 0.78065 0.78065 0.78066 0.78065 0.78065 0.78065 0.78065 0.78066 0.78065 0.78065 0.78065 0.78065 0.78066 0.78065 0.78065 0.78065 0.78066 0.78065 0.78065 0.78065 0.78066 0.78065 0.78065 0.78065 0.78065 0.78066 0.78065 0.78065 0.78065 0.78065 0.78066 0.78065 0.78065 0.78065 0.78066 0.78065 0.78065 0.78065 0.78066 0.78065 0.78065 0.78065 0.78065 0.78066 0.78065 0.78065 0.78065 0.78065 0.78066 0.78065 0.78065 0.78065 0.78066 0.78065 0.78065 0.78065 0.78065 0.78066 0.78065 0.78065 0.78065 0.78065 0.78066 0.78065 0.78065 0.78065 0.78066 0.78065 0.78065 0.78065 0.78065 0.78066 0.78065 0.78065 0.78065 0.78066 0.78065 0.78065 0.78065 0.78066 0.78065 0.78065 0.78065 0.78065 0.78066 0.78065 0.78065 0.78065 0.78065 0.78066 0.78065 0.78065 0.78065 0.78066 0.78065 0.78065 0.78065 0.78065 0.78066 0.78065 0.78065 0.78065 0.78066 0.78065 0.78065 0.78065 0.78065 0.78066 v 0 0 h -0.78066 -0.78065 -0.78065 -0.78065 -0.78065 -0.78066 -0.78065 -0.78065 -0.78065 -0.78066 -0.78065 -0.78065 -0.78065 -0.78065 -0.78066 -0.78065 -0.78065 -0.78065 -0.78066 -0.78065 -0.78065 -0.78065 -0.78065 -0.78066 -0.78065 -0.78065 -0.78065 -0.78065 -0.78066 -0.78065 -0.78065 -0.78065 -0.78066 -0.78065 -0.78065 -0.78065 -0.78066 -0.78065 -0.78065 -0.78065 -0.78065 -0.78066 l -0.78065,-10e-7 h -0.78065 l -0.78065,-10e-7 h -0.78066 l -0.78065,-1e-6 -0.78065,-2e-6 -0.78065,-2e-6 -0.78065,-2e-6 -0.78066,-4e-6 -0.78065,-5e-6 -0.78065,-8e-6 -0.78065,-9e-6 -0.78065,-1.3e-5 -0.78066,-1.8e-5 -0.78065,-2.4e-5 -0.78065,-3.1e-5 -0.78065,-4.1e-5 -0.78066,-5.4e-5 -0.78065,-7.1e-5 -0.78065,-9e-5 -0.78065,-1.16e-4 -0.78065,-1.48e-4 -0.78066,-1.88e-4 -0.78065,-2.35e-4 -0.78065,-2.94e-4 -0.78065,-3.64e-4 -0.78065,-4.48e-4 -0.78066,-5.49e-4 -0.78065,-6.66e-4 -0.78065,-8.03e-4 -0.78065,-9.62e-4 -0.78066,-0.0011 -0.78065,-0.0014 -0.78065,-0.0016 -0.78065,-0.0018 -0.78066,-0.0021 -0.78065,-0.0024 -0.78065,-0.0028 -0.78065,-0.0031 -0.78065,-0.0035 -0.78066,-0.0039 -0.78065,-0.0043 -0.78065,-0.0047 -0.78065,-0.0052 -0.78065,-0.0055 -0.78066,-0.0059 -0.78065,-0.0063 -0.78065,-0.0066 -0.78065,-0.0068 -0.78066,-0.007 -0.78065,-0.0071 -0.78065,-0.0071 -0.78065,-0.0071 -0.78066,-0.0069 -0.78065,-0.0067 -0.78065,-0.0063 -0.78065,-0.0058 -0.78065,-0.0053 -0.78066,-0.0047 -0.78065,-0.004 -0.78065,-0.0032 -0.78065,-0.0023 -0.78065,-0.0014 -0.78066,-5.32e-4 -0.78065,3.87e-4 -0.78065,0.0013 -0.78065,0.0022 -0.78066,0.003 -0.78065,0.0038 -0.78065,0.0045 -0.78065,0.0052 -0.78066,0.0057 -0.78065,0.0062 -0.78065,0.0065 -0.78065,0.0068 -0.78065,0.0069 -0.78066,0.0069 -0.78065,0.0069 -0.78065,0.0067 -0.78065,0.0064 -0.78066,0.0061 -0.78065,0.0057 -0.78065,0.0052 -0.78065,0.0047 -0.78065,0.0041 -0.78066,0.0034 -0.78065,0.0027 -0.78065,0.002 -0.78065,0.0012 -0.78066,4.46e-4 -0.78065,-3.85e-4 -0.78065,-0.0012 -0.78065,-0.0021 -0.78065,-0.003 -0.78066,-0.004 -0.78065,-0.0049 -0.78065,-0.0059 -0.78065,-0.0069 -0.78066,-0.0078 -0.78065,-0.0088 -0.78065,-0.0097 -0.78065,-0.01055 -0.78065,-0.01136 -0.78066,-0.0121 -0.78065,-0.01273 -0.78065,-0.01325 -0.78065,-0.01364 -0.78066,-0.01388 -0.78065,-0.01396 -0.78065,-0.01386 -0.78065,-0.01357 -0.78065,-0.0131 -0.78066,-0.01243 -0.78065,-0.01157 -0.78065,-0.01053 -0.78065,-0.0093 -0.78066,-0.008 -0.78065,-0.0065 -0.78065,-0.0049 -0.78065,-0.0033 -0.78065,-0.0016 -0.78066,1e-4 -0.78065,0.0018 -0.78065,0.0033 -0.78065,0.0048 -0.78066,0.0062 -0.78065,0.0074 -0.78065,0.0084 -0.78065,0.0093 -0.78065,0.0099 -0.78066,0.0103 -0.78065,0.01048 -0.78065,0.01046 -0.78065,0.01023 -0.78065,0.0098 -0.78066,0.0092 -0.78065,0.0085 -0.78065,0.0076 -0.78065,0.0067 -0.78066,0.0057 -0.78065,0.0046 -0.78065,0.0036 -0.78065,0.0026 -0.78065,0.0016 -0.78066,6.84e-4 -0.78065,-1.37e-4 -0.78065,-8.51e-4 -0.78065,-0.0015 -0.78066,-0.0019 -0.78065,-0.0023 -0.78065,-0.0025 -0.78065,-0.0027 -0.78065,-0.0027 -0.78066,-0.0027 -0.78065,-0.0026 -0.78065,-0.0024 -0.78065,-0.0023 -0.78065,-0.0022 -0.78066,-0.0021 -0.78065,-0.002 -0.78065,-0.0021 -0.78065,-0.0023 -0.78066,-0.0026 -0.78065,-0.0031 -0.78065,-0.0037 -0.78065,-0.0045 -0.78065,-0.0055 -0.78066,-0.0066 -0.78065,-0.0078 -0.78065,-0.0092 -0.78065,-0.01072 -0.78066,-0.01229 -0.78065,-0.01392 -0.78065,-0.01556 -0.78065,-0.01718 -0.78066,-0.01874 -0.78065,-0.02021 -0.78065,-0.02155 -0.78065,-0.02273 -0.78065,-0.02372 -0.78066,-0.0245 -0.78065,-0.02505 -0.78065,-0.02535 -0.78065,-0.0254 -0.78066,-0.02521 -0.78065,-0.02478 -0.78065,-0.02413 -0.78065,-0.02329 -0.78065,-0.02227 -0.78066,-0.02111 -0.78065,-0.01985 -0.78065,-0.01852 -0.78065,-0.01717 -0.78066,-0.01582 -0.78065,-0.01452 -0.78065,-0.01328 -0.78065,-0.01215 -0.78065,-0.01113 -0.78066,-0.01025 -0.78065,-0.0095 -0.78065,-0.0089 -0.78065,-0.0084 -0.78066,-0.0081 -0.78065,-0.0078 -0.78065,-0.0077 -0.78065,-0.0076 -0.78065,-0.0075 -0.78066,-0.0075 -0.78065,-0.0075 -0.78065,-0.0074 -0.78065,-0.0074 -0.78066,-0.0073 -0.78065,-0.0071 -0.78065,-0.0069 -0.78065,-0.0067 -0.78065,-0.0064 -0.78066,-0.0062 -0.78065,-0.0059 -0.78065,-0.0057 -0.78065,-0.0056 -0.78066,-0.0055 -0.78065,-0.0055 -0.78065,-0.0056 -0.78065,-0.0058 -0.78065,-0.0061 -0.78066,-0.0066 -0.78065,-0.0073 -0.78065,-0.0081 -0.78065,-0.009 -0.78066,-0.01002 -0.78065,-0.01119 -0.78065,-0.01246 -0.78065,-0.01382 -0.78065,-0.01526 -0.78066,-0.01676 -0.78065,-0.01832 -0.78065,-0.01992 -0.78065,-0.02155 -0.78066,-0.02321 -0.78065,-0.0249 -0.78065,-0.02661 -0.78065,-0.02835 -0.78065,-0.03012 -0.78066,-0.03193 -0.78065,-0.03379 -0.78065,-0.03569 -0.78065,-0.03765 -0.78066,-0.03968 -0.78065,-0.04178 -0.78065,-0.04395 -0.78065,-0.0462 -0.78065,-0.04852 -0.78066,-0.05091 -0.78065,-0.05338 -0.78065,-0.0559 -0.78065,-0.05847 -0.78066,-0.06108 -0.78065,-0.06372 -0.78065,-0.06637 -0.78065,-0.06902 -0.78065,-0.07164 -0.78066,-0.07424 -0.78065,-0.07677 -0.78065,-0.07925 -0.78065,-0.08165 -0.78065,-0.08395 -0.78066,-0.08616 -0.78065,-0.08826 -0.78065,-0.09025 -0.78065,-0.09212 -0.78066,-0.09389 -0.78065,-0.09555 -0.78065,-0.0971 -0.78065,-0.09856 -0.78065,-0.09993 -0.78066,-0.101227 -0.78065,-0.102449 -0.78065,-0.10361 -0.78065,-0.104715 -0.78066,-0.105769 -0.78065,-0.106772 -0.78065,-0.107724 -0.78065,-0.108619 -0.78065,-0.109451 -0.78066,-0.110208 -0.78065,-0.110877 -0.78065,-0.111441 -0.78065,-0.111888 -0.78066,-0.112198 -0.78065,-0.112358 -0.78065,-0.112357 -0.78065,-0.112184 -0.78065,-0.111835 -0.78066,-0.111312 -0.78065,-0.110618 -0.78065,-0.109768 -0.78065,-0.108778 -0.78066,-0.107671 -0.78065,-0.106474 -0.78065,-0.105217 -0.78065,-0.103934 -0.78065,-0.102657 -0.78066,-0.101416 -0.78065,-0.100243 -0.78065,-0.09916 -0.78065,-0.09819 -0.78066,-0.09734 -0.78065,-0.09661 -0.78065,-0.09601 -0.78065,-0.09553 -0.78065,-0.09514 -0.78066,-0.09482 -0.78065,-0.09455 -0.78065,-0.0943 -0.78065,-0.09404 -0.78066,-0.09374 -0.78065,-0.09337 -0.78065,-0.09292 -0.78065,-0.09237 -0.78065,-0.09174 -0.78066,-0.09102 -0.78065,-0.09025 -0.78065,-0.08947 -0.78065,-0.08872 -0.78066,-0.08807 -0.78065,-0.0876 -0.78065,-0.08738 -0.78065,-0.08752 -0.78065,-0.08809 -0.78066,-0.08922 -0.78065,-0.09098 -0.78065,-0.09347 -0.78065,-0.09676 -0.78065,-0.100944 -0.78066,-0.106058 -0.78065,-0.112144 -0.78065,-0.119215 -0.78065,-0.127268 -0.78066,-0.13627 -0.78065,-0.146168 -0.78065,-0.156884 -0.78065,-0.168312 -0.78065,-0.180331 -0.78066,-0.192795 -0.78065,-0.205543 -0.78065,-0.218399 -0.78065,-0.23118 -0.78066,-0.243694 -0.78065,-0.255749 -0.78065,-0.267159 -0.78065,-0.277738 -0.78065,-0.287322 -0.78066,-0.29575 -0.78065,-0.302888 -0.78065,-0.308619 -0.78065,-0.312843 -0.78066,-0.315492 -0.78065,-0.316509 -0.78065,-0.315864 -0.780653,-0.313547 -0.780652,-0.30956 -0.780652,-0.303925 -0.780652,-0.296668 -0.780652,-0.287827 -0.780653,-0.277445 -0.780652,-0.265561 -0.780652,-0.252219 -0.780652,-0.237452 -0.780652,-0.221293 -0.780653,-0.203765 -0.780652,-0.184887 -0.780652,-0.16467 -0.780652,-0.143122 -0.780653,-0.120244 -0.780652,-0.09604 -0.780652,-0.07052 -0.780652,-0.0437 -0.780652,-0.01559 -0.780653,0.01378 -0.780652,0.04433 -0.780652,0.07602 -0.780652,0.108729 -0.780652,0.14235 -0.780653,0.176728 -0.780652,0.211686 -0.780652,0.247013 -0.780652,0.282475 -0.780653,0.317801 -0.780652,0.352705 -0.780652,0.38687 -0.780652,0.419969 -0.780652,0.451662 -0.780653,0.481602 -0.780652,0.509447 -0.780652,0.534865 -0.780652,0.557543 -0.780652,0.577195 -0.780653,0.593566 -0.780652,0.60645 -0.780652,0.615686 -0.780652,0.621162 -0.780653,0.622833 -0.780652,0.620706 -0.780652,0.614854 -0.780652,0.605406 -0.780652,0.592548 -0.780653,0.576519 -0.780652,0.557604 -0.780652,0.536128 -0.780652,0.512441 -0.780652,0.486922 -0.780653,0.459957 -0.780652,0.431938 -0.780652,0.403251 -0.780652,0.374265 -0.780653,0.345334 -0.780652,0.316778 -0.780652,0.288889 -0.780652,0.26192 -0.780652,0.236085 -0.780653,0.211563 -0.780652,0.188485 -0.780652,0.16695 -0.780652,0.14702 -0.780652,0.128719 -0.780653,0.112043 -0.780652,0.09697 -0.780652,0.08343 -0.780652,0.07138 -0.780653,0.06071 -0.780652,0.05134 -0.780652,0.04317 -0.780652,0.03609 -0.780652,0.03 -0.780653,0.02479 -0.780652,0.02037 -0.780652,0.01664 -0.780652,0.01352 -0.780652,0.01092 -0.780653,0.0088 -0.780652,0.007 -0.780652,0.0056 -0.780652,0.0044 -0.780652,0.0034 -0.780653,0.0027 -0.780652,0.0021 -0.780652,0.0016 -0.780652,0.0012 -0.780653,9.44e-4 -0.780652,7.16e-4 -0.780652,5.41e-4 -0.780652,4.05e-4 -0.780652,3.02e-4 -0.780653,2.24e-4 -0.780652,1.66e-4 -0.780652,1.21e-4 -0.780652,8.8e-5 z"
           style="fill:#d62728;fill-opacity:0.5;fill-rule:nonzero;stroke:none"
           id="path688" /></g></g><g
       id="g690"><g
         id="g692"
         clip-path="url(#clipPath696)"><path
           d="m 22.977273,74.624778 17.174348,-0.101777 4.683914,-0.246094 3.122609,-0.363819 2.341956,-0.442689 2.341957,-0.636133 2.341956,-0.867587 2.341957,-1.12285 2.341957,-1.378817 2.341956,-1.606173 3.903261,-3.010033 4.683914,-3.636892 2.341956,-1.601855 2.341957,-1.353233 2.341957,-1.057376 2.341956,-0.741174 2.341957,-0.427807 2.341957,-0.134126 2.341956,0.129803 2.341957,0.359408 2.341957,0.553322 3.122608,0.976525 3.903261,1.475425 7.806523,3.046572 3.12261,0.997782 3.12261,0.797068 3.90326,0.734902 4.68391,0.628591 24.98087,3.011606 27.32283,3.617732 7.02587,0.620565 7.80652,0.453659 8.58718,0.27547 12.49043,0.133352 21.85826,0.274635 20.29696,0.455077 22.63892,-0.0099 14.83239,-0.07827 26.54217,0.216809 21.85826,-0.051 24.20022,0.108658 50.7424,8.29e-4 v 0"
           style="fill:none;stroke:#d62728;stroke-width:1.5;stroke-linecap:square;stroke-linejoin:round;stroke-miterlimit:10;stroke-dasharray:none;stroke-opacity:1"
           id="path698" /></g></g><g
       id="g700"><path
         d="M 3.5,74.625 H 432"
         style="fill:none;stroke:#000000;stroke-width:0.8;stroke-linecap:square;stroke-linejoin:miter;stroke-miterlimit:10;stroke-dasharray:none;stroke-opacity:1"
         id="path708" /></g><path
       style="fill:none;stroke:#000000;stroke-width:0.75px;stroke-linecap:butt;stroke-linejoin:miter;stroke-opacity:1"
       d="M 3.5324735,144.80017 37.78,145.75 v 0 0 0"
       id="path823" /><path
       style="fill:none;stroke:#000000;stroke-width:0.737642;stroke-linecap:butt;stroke-linejoin:miter;stroke-miterlimit:4;stroke-dasharray:2.21293, 0.737642;stroke-dashoffset:0;stroke-opacity:1;marker-start:url(#Arrow1Mstart);marker-end:url(#Arrow1Mend)"
       d="m 4.8296375,148.84662 31.8241405,0.98875 v 0 0 0"
       id="path823-1" /><path
       style="fill:none;stroke:#000000;stroke-width:0.75px;stroke-linecap:butt;stroke-linejoin:miter;stroke-opacity:1"
       d="M 37.592391,155.81887 37.78,145.75"
       id="path1049" /><path
       style="fill:none;stroke:#000000;stroke-width:0.75px;stroke-linecap:butt;stroke-linejoin:miter;stroke-opacity:1"
       d="m 3.5324735,144.80017 0.187609,10.06887"
       id="path1049-7" /><text
       xml:space="preserve"
       style="font-style:normal;font-weight:normal;font-size:16px;line-height:1.25;font-family:sans-serif;fill:#000000;fill-opacity:1;stroke:none;stroke-width:0.75"
       x="16.749685"
       y="-152.45322"
       id="text8206"
       transform="scale(1,-1)"><tspan
         sodipodi:role="line"
         id="tspan8204"
         style="font-style:italic;font-variant:normal;font-weight:normal;font-stretch:normal;font-size:16px;font-family:sans-serif;-inkscape-font-specification:'sans-serif Italic';font-variant-ligatures:normal;font-variant-position:super;font-variant-caps:normal;font-variant-numeric:normal;font-variant-east-asian:normal;stroke-width:0.75"
         x="16.749685"
         y="-152.45322">t</tspan></text><path
       style="fill:none;stroke:#000000;stroke-width:0.777524;stroke-linecap:butt;stroke-linejoin:miter;stroke-miterlimit:4;stroke-dasharray:3.11009, 0.777524;stroke-dashoffset:0;stroke-opacity:1;marker-start:url(#Arrow1Mstart);marker-end:url(#marker54001)"
       d="M 18.83527,142.22007 C 19.179999,75.741675 19.179999,75.741675 19.179999,75.741675"
       id="path53917" /><text
       xml:space="preserve"
       style="font-style:italic;font-size:16px;line-height:1.25;font-family:serif;-inkscape-font-specification:'serif Italic';stroke-width:0.75"
       x="79.869164"
       y="12.627755"
       id="text73613"
       transform="matrix(0,1,1,0,0,0)"><tspan
         sodipodi:role="line"
         id="tspan73611"
         style="font-size:16px;stroke-width:0.75"
         x="79.869164"
         y="12.627755"><tspan
           id="tspan94078"
           style="font-style:normal;font-variant:normal;font-weight:normal;font-stretch:normal;font-size:16px;font-family:sans-serif;-inkscape-font-specification:sans-serif">bias</tspan><tspan
           style="font-style:normal;font-variant:normal;font-weight:normal;font-stretch:normal;font-size:16px;font-family:serif;-inkscape-font-specification:serif"
           id="tspan75937"> </tspan><tspan
           id="tspan94080"
           style="font-style:normal;font-variant:normal;font-weight:normal;font-stretch:normal;font-size:16px;font-family:sans-serif;-inkscape-font-specification:sans-serif">(<tspan
   style="font-style:italic;font-variant:normal;font-weight:normal;font-stretch:normal;font-size:16px;font-family:sans-serif;-inkscape-font-specification:'sans-serif Italic'"
   id="tspan98978">z</tspan>)</tspan></tspan></text><path
       style="fill:none;stroke:#000000;stroke-width:1.44993;stroke-linecap:butt;stroke-linejoin:miter;stroke-miterlimit:4;stroke-dasharray:5.7997, 1.44993;stroke-dashoffset:0;stroke-opacity:1;marker-start:url(#Arrow1Mstart-9);marker-end:url(#marker54001-9)"
       d="M 354.6466,211.79444 C 354.93174,78.291613 354.93174,78.291613 354.93174,78.291613"
       id="path53917-7" /><text
       xml:space="preserve"
       style="font-style:italic;font-size:16px;line-height:1.25;font-family:serif;-inkscape-font-specification:'serif Italic';stroke-width:0.75"
       x="92.966476"
       y="374.31812"
       id="text73613-3"
       transform="matrix(0,1,1,0,0,0)"><tspan
         sodipodi:role="line"
         id="tspan73611-4"
         style="font-size:16px;stroke-width:0.75"
         x="92.966476"
         y="374.31812"><tspan
           id="tspan70491"
           style="font-style:normal;font-variant:normal;font-weight:normal;font-stretch:normal;font-size:16px;font-family:sans-serif;-inkscape-font-specification:sans-serif">threshold</tspan><tspan
           style="font-style:normal;font-variant:normal;font-weight:normal;font-stretch:normal;font-size:16px;font-family:serif;-inkscape-font-specification:serif"
           id="tspan75937-0"> </tspan><tspan
           id="tspan94080-7"
           style="font-style:normal;font-variant:normal;font-weight:normal;font-stretch:normal;font-size:16px;font-family:sans-serif;-inkscape-font-specification:sans-serif">(<tspan
   style="font-style:italic;font-variant:normal;font-weight:normal;font-stretch:normal;font-size:16px;font-family:sans-serif;-inkscape-font-specification:'sans-serif Italic'"
   id="tspan127189">a</tspan>)</tspan></tspan></text><text
       xml:space="preserve"
       style="font-style:italic;font-size:16px;line-height:1.25;font-family:serif;-inkscape-font-specification:'serif Italic';stroke-width:0.75"
       x="126.94834"
       y="-83.834396"
       id="text73613-1"
       transform="matrix(0.81928231,0.57339035,0.57339035,-0.81928231,0,0)"><tspan
         sodipodi:role="line"
         id="tspan73611-7"
         style="font-size:16px;stroke-width:0.75"
         x="126.94834"
         y="-83.834396"><tspan
           id="tspan56425"
           style="font-style:normal;font-variant:normal;font-weight:normal;font-stretch:normal;font-size:16px;font-family:sans-serif;-inkscape-font-specification:sans-serif">drift rate</tspan><tspan
           style="font-style:normal;font-variant:normal;font-weight:normal;font-stretch:normal;font-size:16px;font-family:serif;-inkscape-font-specification:serif"
           id="tspan75937-4"> </tspan><tspan
           id="tspan94080-3"
           style="font-style:normal;font-variant:normal;font-weight:normal;font-stretch:normal;font-size:16px;font-family:sans-serif;-inkscape-font-specification:sans-serif">(<tspan
   style="font-style:italic;font-variant:normal;font-weight:normal;font-stretch:normal;font-size:16px;font-family:sans-serif;-inkscape-font-specification:'sans-serif Italic'"
   id="tspan105812">v</tspan>)</tspan></tspan></text><path
       style="fill:none;stroke:#000000;stroke-width:1.275;stroke-linecap:butt;stroke-linejoin:miter;stroke-miterlimit:1.9;stroke-dasharray:none;stroke-opacity:1;marker-end:url(#marker54001)"
       d="m 37.78,145.75 c 93.16271,69.00565 93.16271,69.00565 93.16271,69.00565"
       id="path102459" /><path
       style="fill:none;stroke:#000000;stroke-width:1.275;stroke-linecap:butt;stroke-linejoin:miter;stroke-miterlimit:1.9;stroke-dasharray:none;stroke-opacity:1;marker-end:url(#Arrow2Mend)"
       d="m 214.25962,58.632808 c 115.93203,0.914037 115.93203,0.914037 115.93203,0.914037"
       id="path102459-9" /><text
       xml:space="preserve"
       style="font-style:normal;font-weight:normal;font-size:18px;line-height:1.25;font-family:sans-serif;fill:#000000;fill-opacity:1;stroke:none;stroke-width:0.75"
       x="259.38266"
       y="-38.253937"
       id="text8206-0"
       transform="scale(1,-1)"><tspan
         sodipodi:role="line"
         id="tspan8204-8"
         style="font-style:normal;font-variant:normal;font-weight:normal;font-stretch:normal;font-size:18px;font-family:sans-serif;-inkscape-font-specification:sans-serif;font-variant-ligatures:normal;font-variant-position:super;font-variant-caps:normal;font-variant-numeric:normal;font-variant-east-asian:normal;stroke-width:0.75"
         x="259.38266"
         y="-38.253937">time</tspan></text><text
       xml:space="preserve"
       style="font-style:italic;font-size:12px;line-height:1.25;font-family:serif;-inkscape-font-specification:'serif Italic';stroke-width:0.75"
       x="75.089745"
       y="-219.61826"
       id="text76464"
       transform="scale(1,-1)"><tspan
         sodipodi:role="line"
         id="tspan76462"
         style="font-style:normal;font-variant:normal;font-weight:normal;font-stretch:normal;font-size:12px;font-family:sans-serif;-inkscape-font-specification:sans-serif;stroke-width:0.75"
         x="75.089745"
         y="-219.61826">Upper boundary</tspan></text><text
       xml:space="preserve"
       style="font-style:italic;font-size:12px;line-height:1.25;font-family:serif;-inkscape-font-specification:'serif Italic';stroke-width:0.75"
       x="68.965508"
       y="-64.140167"
       id="text85558"
       transform="scale(1,-1)"><tspan
         sodipodi:role="line"
         id="tspan85556"
         style="font-style:normal;font-variant:normal;font-weight:normal;font-stretch:normal;font-size:12px;font-family:sans-serif;-inkscape-font-specification:sans-serif;stroke-width:0.75"
         x="68.965508"
         y="-64.140167">Lower boundary</tspan></text></g></svg>
