<?xml version="1.0" encoding="UTF-8" standalone="no"?>
<!-- Created with matplotlib (http://matplotlib.org/) -->

<svg
   inkscape:export-ydpi="150"
   inkscape:export-xdpi="150"
   inkscape:export-filename="/home/wiecki/working/projects/hddm/docs/paper/graphical_hddm.png"
   sodipodi:docname="model_graph_m0.svg"
   inkscape:version="1.1 (1:1.1+202105261517+ce6663b3b7)"
   id="svg2"
   width="568.17914"
   viewBox="0 0 454.54331 199.4249"
   version="1.1"
   height="249.28113"
   xmlns:inkscape="http://www.inkscape.org/namespaces/inkscape"
   xmlns:sodipodi="http://sodipodi.sourceforge.net/DTD/sodipodi-0.dtd"
   xmlns:xlink="http://www.w3.org/1999/xlink"
   xmlns="http://www.w3.org/2000/svg"
   xmlns:svg="http://www.w3.org/2000/svg"
   xmlns:rdf="http://www.w3.org/1999/02/22-rdf-syntax-ns#"
   xmlns:cc="http://creativecommons.org/ns#"
   xmlns:dc="http://purl.org/dc/elements/1.1/"
   xmlns:ns0="http://www.iki.fi/pav/software/textext/">
  <metadata
     id="metadata316">
    <rdf:RDF>
      <cc:Work
         rdf:about="">
        <dc:format>image/svg+xml</dc:format>
        <dc:type
           rdf:resource="http://purl.org/dc/dcmitype/StillImage" />
      </cc:Work>
    </rdf:RDF>
  </metadata>
  <sodipodi:namedview
     pagecolor="#ffffff"
     bordercolor="#666666"
     borderopacity="1"
     objecttolerance="10"
     gridtolerance="10"
     guidetolerance="10"
     inkscape:pageopacity="0"
     inkscape:pageshadow="2"
     inkscape:window-width="1848"
     inkscape:window-height="1016"
     id="namedview314"
     showgrid="false"
     fit-margin-top="0"
     fit-margin-left="0"
     fit-margin-right="0"
     fit-margin-bottom="0"
     inkscape:zoom="1.6311284"
     inkscape:cx="306.53626"
     inkscape:cy="115.56417"
     inkscape:window-x="72"
     inkscape:window-y="446"
     inkscape:window-maximized="1"
     inkscape:current-layer="figure_1"
     inkscape:pagecheckerboard="0" />
  <defs
     id="defs4"
     style="stroke-linecap:square;stroke-linejoin:round">
    <style
       type="text/css"
       id="style6">
*{stroke-linecap:square;stroke-linejoin:round;}
  </style>
    <defs
       id="defs118">
      <path
         d="M 74,57.7031 C 75.0938,62 76.7031,65 84.2969,65 c 0.2969,0 1.5,0.0938 1.5,1.8594 C 85.7969,68 84.9062,68 84.5,68 c -2,0 -7.0938,0 -9.0938,0 l -4.8124,0 C 69.2031,68 67.4062,68 66,68 65.4062,68 64.2031,68 64.2031,66.0312 64.2031,65 65,65 65.7031,65 c 6,0 6.3907,-2.2969 6.3907,-4.0938 0,-0.8906 -0.0938,-1.2031 -0.3907,-2.5937 L 60.4062,13.2812 39,66.2969 C 38.2969,67.9062 38.2031,68 36,68 l -12.2031,0 c -2,0 -2.8907,0 -2.8907,-1.9688 C 20.9062,65 21.5938,65 23.5,65 c 0.5,0 6.4062,0 6.4062,-0.9062 0,-0.2032 -0.2031,-1 -0.3124,-1.2969 L 16.2969,9.89062 C 15.0938,5 12.7031,2.90625 6.09375,2.90625 c -0.5,0 -1.5,-0.09375 -1.5,-1.90625 0,-1 1,-1 1.3125,-1 C 7.90625,0 13,0 15,0 l 4.7969,0 c 1.4062,0 3.1093,0 4.5,0 0.7031,0 1.7969,0 1.7969,1.90625 0,0.90625 -1,1 -1.3907,1 -3.2969,0 -6.5,0.59375 -6.5,4.1875 0,0.79687 0.2031,1.6875 0.3907,2.48437 l 13.5,53.39068 c 0.6093,-1 0.6093,-1.1876 1,-2.0938 L 56.9062,1.73438 C 57.4062,0.578125 57.5938,0 58.5,0 c 1,0 1.0938,0.296875 1.5,2 z"
         id="CMMI12-78"
         inkscape:connector-curvature="0"
         style="stroke-linecap:square;stroke-linejoin:round" />
      <path
         d="m 35,31.6875 c 0.4062,1.6094 0.4062,2.9844 0.4062,3.3906 0,5.75 -4.3124,8.9219 -8.8124,8.9219 -10.0938,0 -15.5,-14.4844 -15.5,-15.1719 0,-0.5 0.4062,-0.8906 1,-0.8906 0.8124,0 0.9062,0.3906 1.4062,1.375 4,9.625 9,12.7031 12.7969,12.7031 2.1093,0 3.2031,-1.1094 3.2031,-4.5625 0,-2.375 -0.2969,-3.375 -0.7031,-5.1562 l -9.5,-37.40628 C 17.4062,-12.4375 12.7031,-18 7.20312,-18 c -0.40624,0 -2.5,0 -4.40624,1 2.40624,0.5 4.29687,2.375 4.29687,4.75 0,1.5938 -1.1875,3.1875 -3.39063,3.1875 -2.60937,0 -5,-2.1875 -5,-5.1719 0,-4.0625 4.39063,-5.7656 8.5,-5.7656 6.89068,0 15.99998,5.0625 18.49998,15 z m 4.0938,31.0156 C 39.0938,65.2031 37,66 35.7969,66 c -2.7031,0 -5,-2.5938 -5,-4.7969 0,-1.4843 1.2031,-3.2812 3.4062,-3.2812 2.2969,0 4.8907,2.1875 4.8907,4.7812"
         id="CMMI12-106"
         inkscape:connector-curvature="0"
         style="stroke-linecap:square;stroke-linejoin:round" />
      <path
         d="m 64.2969,31.5156 c 1.5,0 3,0 3,1.6875 C 67.2969,35 65.5938,35 63.9062,35 L 8,35 c -1.70312,0 -3.40625,0 -3.40625,-1.7969 0,-1.6875 1.5,-1.6875 3,-1.6875 z M 63.9062,14 c 1.6876,0 3.3907,0 3.3907,1.7969 0,1.6875 -1.5,1.6875 -3,1.6875 l -56.70315,0 c -1.5,0 -3,0 -3,-1.6875 C 4.59375,14 6.29688,14 8,14 z"
         id="CMR17-61"
         inkscape:connector-curvature="0"
         style="stroke-linecap:square;stroke-linejoin:round" />
      <path
         d="m 26.5938,63.3125 c 0,2.0937 -0.0938,2.1875 -1.5,2.1875 -3.8907,-4.3125 -9.7969,-5.7031 -15.39068,-5.7031 -0.29687,0 -0.79687,0 -0.90624,-0.2969 C 8.70312,59.2969 8.70312,59.0938 8.70312,57 11.7969,57 17,57.5938 21,59.9844 L 21,7.20312 C 21,3.6875 20.7969,2.5 12.2031,2.5 l -2.99998,0 0,-2.5 C 14,0 19,0 23.7969,0 c 4.7969,0 9.7969,0 14.6093,0 l 0,2.5 -3,0 c -8.6093,0 -8.8124,1.09375 -8.8124,4.65625 z"
         id="CMR17-49"
         inkscape:connector-curvature="0"
         style="stroke-linecap:square;stroke-linejoin:round" />
      <path
         d="m 18.4062,4.79688 c 0,2.89062 -2.4062,4.875 -4.8124,4.875 -2.8907,0 -4.89068,-2.39063 -4.89068,-4.78126 C 8.70312,2 11.0938,0 13.5,0 c 2.9062,0 4.9062,2.39062 4.9062,4.79688"
         id="CMMI12-58"
         inkscape:connector-curvature="0"
         style="stroke-linecap:square;stroke-linejoin:round" />
      <path
         d="M 19.5,-0.484375 C 19.5,5.35938 17.5938,9.67188 13.5,9.67188 10.2969,9.67188 8.70312,7.07812 8.70312,4.89062 8.70312,2.6875 10.2031,0 13.5938,0 14.9062,0 16,0.40625 16.9062,1.29688 17.0938,1.5 17.2031,1.5 17.2969,1.5 17.5,1.5 17.5,0.078125 17.5,-0.421875 17.5,-3.75 16.9062,-10.2969 11.0938,-16.875 10,-18.0781 10,-18.2812 10,-18.4844 10,-19 10.5,-19.5 11,-19.5 c 0.7969,0 8.5,7.4531 8.5,19.015625"
         id="CMMI12-59"
         inkscape:connector-curvature="0"
         style="stroke-linecap:square;stroke-linejoin:round" />
    </defs>
    <defs
       id="defs147">
      <path
         d="M 63.5,69.1094 C 63.5,70 62.7969,70 62.5938,70 62.2031,70 62.0938,69.9062 60.9062,68.4062 60.2969,67.7031 56.2031,62.5156 56.0938,62.4219 52.7969,68.9062 46.2031,70 42,70 29.2969,70 17.7969,58.4844 17.7969,47.2656 c 0,-7.4375 4.5,-11.8125 9.4062,-13.5 1.0938,-0.4062 7,-2 10,-2.6875 5.0938,-1.3906 6.3907,-1.7812 8.5,-3.9687 0.3907,-0.5 2.3907,-2.7813 2.3907,-7.4532 C 48.0938,10.4219 39.5,0.890625 29.5,0.890625 21.2969,0.890625 12.2031,4.375 12.2031,15.5 c 0,1.875 0.3907,4.2656 0.7031,5.25 0,0.3125 0.0938,0.7969 0.0938,0.9844 0,0.4062 -0.2031,0.9062 -1,0.9062 -0.9062,0 -1,-0.2031 -1.4062,-1.8906 L 5.5,0.390625 C 5.5,0.296875 5.09375,-1 5.09375,-1.10938 5.09375,-2 5.90625,-2 6.09375,-2 c 0.40625,0 0.5,0.09375 1.70313,1.59375 L 12.4062,5.5625 C 14.7969,1.96875 20,-2 29.2969,-2 42.2031,-2 54,10.4062 54,22.8125 54,27 53,30.6719 49.2031,34.3281 c -2.1093,2.0938 -3.9062,2.5938 -13.1093,4.9844 -6.6876,1.7813 -7.5938,2.0781 -9.3907,3.6719 -1.7031,1.6718 -3,4.0625 -3,7.4375 0,8.3437 8.5,16.8906 18,16.8906 9.7969,0 14.3907,-5.9687 14.3907,-15.3906 0,-2.5781 -0.5,-5.2657 -0.5,-5.6563 0,-0.9062 0.8124,-0.9062 1.1093,-0.9062 0.8907,0 1,0.2968 1.3907,1.8906 z"
         id="CMMI12-83"
         inkscape:connector-curvature="0"
         style="stroke-linecap:square;stroke-linejoin:round" />
      <path
         d="m 28.2969,14.2656 c 0,0.5 -0.3907,0.9063 -1,0.9063 -0.8907,0 -1,-0.2969 -1.5,-2 C 23.2031,4.09375 19.0938,1 15.7969,1 c -1.2031,0 -2.5938,0.29688 -2.5938,3.29688 0,2.6875 1.2031,5.6875 2.2969,8.67192 l 7,18.5624 c 0.2969,0.7969 1,2.5938 1,4.4844 C 23.5,40.2188 20.5,44 15.5938,44 6.40625,44 2.70312,29.5312 2.70312,28.7344 c 0,-0.3906 0.39063,-0.8906 1.09376,-0.8906 0.90624,0 1,0.3906 1.40624,1.7812 2.39063,8.3125 6.20308,12.2812 10.09378,12.2812 0.9062,0 2.6093,0 2.6093,-3.1874 0,-2.5938 -1.3124,-5.8907 -2.1093,-8.0782 L 8.79688,12.0781 C 8.20312,10.4844 7.59375,8.875 7.59375,7.07812 7.59375,2.59375 10.7031,-1 15.5,-1 24.7031,-1 28.2969,13.5781 28.2969,14.2656 M 27.5,62.7031 c 0,1.5 -1.2031,3.2969 -3.4062,3.2969 -2.2969,0 -4.8907,-2.2031 -4.8907,-4.7969 0,-2.4843 2.0938,-3.2812 3.2969,-3.2812 2.7031,0 5,2.5937 5,4.7812"
         id="CMMI12-105"
         inkscape:connector-curvature="0"
         style="stroke-linecap:square;stroke-linejoin:round" />
    </defs>
  </defs>
  <g
     id="figure_1"
     style="stroke-linecap:square;stroke-linejoin:round"
     transform="translate(-42.019701,-70.3661)">
    <g
       id="axes_1"
       style="stroke-linecap:square;stroke-linejoin:round">
      <g
         id="patch_2"
         style="stroke-linecap:square;stroke-linejoin:round">
        <path
           clip-path="url(#pbed307b0b0)"
           d="m 56.6929,269.291 396.8501,0 0,-155.905 -396.8501,0 z"
           style="fill:none;stroke:#000000;stroke-linecap:square;stroke-linejoin:round"
           id="path14"
           inkscape:connector-curvature="0" />
      </g>
      <g
         id="patch_3"
         style="stroke-linecap:square;stroke-linejoin:round">
        <path
           clip-path="url(#pbed307b0b0)"
           d="m 212.598,260.787 85.04,0 0,-62.362 -85.04,0 z"
           style="fill:none;stroke:#000000;stroke-linecap:square;stroke-linejoin:round"
           id="path17"
           inkscape:connector-curvature="0" />
      </g>
      <g
         id="patch_4"
         style="stroke-linecap:square;stroke-linejoin:round">
        <path
           clip-path="url(#pbed307b0b0)"
           d="m 78.7009,129.055 -4.4369,-5.704 1.2677,-0.634 -12.5003,-25.0007 0,0 12.5003,25.0007 1.2677,-0.634 z"
           style="stroke:#000000;stroke-linecap:square;stroke-linejoin:round"
           id="path20"
           inkscape:connector-curvature="0" />
      </g>
      <g
         id="patch_5"
         style="stroke-linecap:square;stroke-linejoin:round">
        <path
           clip-path="url(#pbed307b0b0)"
           d="m 91.3778,129.055 1.9016,-6.972 1.2677,0.634 12.4999,-25.0007 0,0 -12.4999,25.0007 1.2677,0.634 z"
           style="stroke:#000000;stroke-linecap:square;stroke-linejoin:round"
           id="path23"
           inkscape:connector-curvature="0" />
      </g>
      <g
         id="patch_6"
         style="stroke-linecap:square;stroke-linejoin:round">
        <path
           clip-path="url(#pbed307b0b0)"
           d="m 192.087,129.055 -4.437,-5.704 1.268,-0.634 -12.501,-25.0007 0,0 12.501,25.0007 1.267,-0.634 z"
           style="stroke:#000000;stroke-linecap:square;stroke-linejoin:round"
           id="path26"
           inkscape:connector-curvature="0" />
      </g>
      <g
         id="patch_7"
         style="stroke-linecap:square;stroke-linejoin:round">
        <path
           clip-path="url(#pbed307b0b0)"
           d="m 204.764,129.055 1.901,-6.972 1.268,0.634 12.5,-25.0007 0,0 -12.5,25.0007 1.268,0.634 z"
           style="stroke:#000000;stroke-linecap:square;stroke-linejoin:round"
           id="path29"
           inkscape:connector-curvature="0" />
      </g>
      <g
         id="patch_8"
         style="stroke-linecap:square;stroke-linejoin:round">
        <path
           clip-path="url(#pbed307b0b0)"
           d="m 305.473,129.055 -4.437,-5.704 1.267,-0.634 -12.5,-25.0007 0,0 12.5,25.0007 1.268,-0.634 z"
           style="stroke:#000000;stroke-linecap:square;stroke-linejoin:round"
           id="path32"
           inkscape:connector-curvature="0" />
      </g>
      <g
         id="patch_9"
         style="stroke-linecap:square;stroke-linejoin:round">
        <path
           clip-path="url(#pbed307b0b0)"
           d="m 318.149,129.055 1.902,-6.972 1.268,0.634 12.5,-25.0007 0,0 -12.5,25.0007 1.267,0.634 z"
           style="stroke:#000000;stroke-linecap:square;stroke-linejoin:round"
           id="path35"
           inkscape:connector-curvature="0" />
      </g>
      <g
         id="patch_10"
         style="stroke-linecap:square;stroke-linejoin:round">
        <path
           clip-path="url(#pbed307b0b0)"
           d="m 418.858,129.055 -4.437,-5.704 1.268,-0.634 -12.5,-25.0007 0,0 12.5,25.0007 1.268,-0.634 z"
           style="stroke:#000000;stroke-linecap:square;stroke-linejoin:round"
           id="path38"
           inkscape:connector-curvature="0" />
      </g>
      <g
         id="patch_11"
         style="stroke-linecap:square;stroke-linejoin:round">
        <path
           clip-path="url(#pbed307b0b0)"
           d="m 431.535,129.055 1.902,-6.972 1.268,0.634 12.5,-25.0007 0,0 -12.5,25.0007 1.267,0.634 z"
           style="stroke:#000000;stroke-linecap:square;stroke-linejoin:round"
           id="path41"
           inkscape:connector-curvature="0" />
      </g>
      <g
         id="patch_12"
         style="stroke-linecap:square;stroke-linejoin:round">
        <path
           clip-path="url(#pbed307b0b0)"
           d="m 242.441,220.433 -6.972,-1.901 0.634,-1.268 -138.3867,-69.193 0,0 138.3867,69.193 0.634,-1.268 z"
           style="stroke:#000000;stroke-linecap:square;stroke-linejoin:round"
           id="path44"
           inkscape:connector-curvature="0" />
      </g>
      <g
         id="patch_13"
         style="stroke-linecap:square;stroke-linejoin:round">
        <path
           clip-path="url(#pbed307b0b0)"
           d="m 247.256,214.979 -5.11,-5.11 1.179,-0.787 -37.038,-55.557 0,0 37.038,55.557 1.18,-0.786 z"
           style="stroke:#000000;stroke-linecap:square;stroke-linejoin:round"
           id="path47"
           inkscape:connector-curvature="0" />
      </g>
      <g
         id="patch_14"
         style="stroke-linecap:square;stroke-linejoin:round">
        <path
           clip-path="url(#pbed307b0b0)"
           d="m 262.98,214.979 2.752,-6.683 1.179,0.786 37.038,-55.557 0,0 -37.038,55.557 1.179,0.787 z"
           style="stroke:#000000;stroke-linecap:square;stroke-linejoin:round"
           id="path50"
           inkscape:connector-curvature="0" />
      </g>
      <g
         id="patch_15"
         style="stroke-linecap:square;stroke-linejoin:round">
        <path
           clip-path="url(#pbed307b0b0)"
           d="m 267.795,220.433 5.705,-4.437 0.633,1.268 138.387,-69.193 0,0 -138.387,69.193 0.634,1.268 z"
           style="stroke:#000000;stroke-linecap:square;stroke-linejoin:round"
           id="path53"
           inkscape:connector-curvature="0" />
      </g>
      <g
         id="patch_16"
         style="stroke-linecap:square;stroke-linejoin:round">
        <path
           clip-path="url(#pbed307b0b0)"
           d="m 269.182,225.014 6.856,-2.286 0.176,1.407 191.612,-23.952 0,0 -191.612,23.952 0.176,1.406 z"
           style="stroke:#000000;stroke-linecap:square;stroke-linejoin:round"
           id="path56"
           inkscape:connector-curvature="0" />
      </g>
      <g
         id="patch_17"
         style="stroke-linecap:square;stroke-linejoin:round">
        <path
           clip-path="url(#pbed307b0b0)"
           d="m 269.182,228.53 7.208,-0.528 -0.176,1.407 191.612,23.951 0,0 -191.612,-23.951 -0.176,1.406 z"
           style="stroke:#000000;stroke-linecap:square;stroke-linejoin:round"
           id="path59"
           inkscape:connector-curvature="0" />
      </g>
      <g
         id="patch_18"
         style="stroke-linecap:square;stroke-linejoin:round">
        <path
           clip-path="url(#pbed307b0b0)"
           d="m 268.389,221.795 6.138,-3.815 0.497,1.327 193.595,-72.598 0,0 -193.595,72.598 0.498,1.327 z"
           style="stroke:#000000;stroke-linecap:square;stroke-linejoin:round"
           id="path62"
           inkscape:connector-curvature="0" />
      </g>
      <g
         id="patch_19"
         style="stroke-linecap:square;stroke-linejoin:round">
        <path
           clip-path="url(#pbed307b0b0)"
           d="m 453.543,99.2126 c 3.759,0 7.364,-1.4934 10.022,-4.1512 2.658,-2.6579 4.152,-6.2632 4.152,-10.022 0,-3.7588 -1.494,-7.3642 -4.152,-10.022 -2.658,-2.6579 -6.263,-4.1513 -10.022,-4.1513 -3.758,0 -7.364,1.4934 -10.022,4.1513 -2.658,2.6578 -4.151,6.2632 -4.151,10.022 0,3.7588 1.493,7.3641 4.151,10.022 2.658,2.6578 6.264,4.1512 10.022,4.1512 z"
           style="fill:none;stroke:#000000;stroke-linecap:square;stroke-linejoin:round"
           id="path65"
           inkscape:connector-curvature="0" />
      </g>
      <g
         id="patch_20"
         style="stroke-linecap:square;stroke-linejoin:round">
        <path
           clip-path="url(#pbed307b0b0)"
           d="m 481.89,269.291 c 3.759,0 7.364,-1.493 10.022,-4.151 2.658,-2.658 4.151,-6.263 4.151,-10.022 0,-3.759 -1.493,-7.364 -4.151,-10.022 -2.658,-2.658 -6.263,-4.151 -10.022,-4.151 -3.759,0 -7.364,1.493 -10.022,4.151 -2.658,2.658 -4.151,6.263 -4.151,10.022 0,3.759 1.493,7.364 4.151,10.022 2.658,2.658 6.263,4.151 10.022,4.151 z"
           style="fill:none;stroke:#000000;stroke-linecap:square;stroke-linejoin:round"
           id="path68"
           inkscape:connector-curvature="0" />
      </g>
      <g
         id="patch_21"
         style="stroke-linecap:square;stroke-linejoin:round">
        <path
           clip-path="url(#pbed307b0b0)"
           d="m 113.386,99.2126 c 3.759,0 7.364,-1.4934 10.022,-4.1512 2.658,-2.6579 4.151,-6.2632 4.151,-10.022 0,-3.7588 -1.493,-7.3642 -4.151,-10.022 -2.658,-2.6579 -6.263,-4.1513 -10.022,-4.1513 -3.759,0 -7.364,1.4934 -10.022,4.1513 -2.658,2.6578 -4.1514,6.2632 -4.1514,10.022 0,3.7588 1.4934,7.3641 4.1514,10.022 2.658,2.6578 6.263,4.1512 10.022,4.1512 z"
           style="fill:none;stroke:#000000;stroke-linecap:square;stroke-linejoin:round"
           id="path71"
           inkscape:connector-curvature="0" />
      </g>
      <g
         id="patch_22"
         style="stroke-linecap:square;stroke-linejoin:round">
        <path
           clip-path="url(#pbed307b0b0)"
           d="m 311.811,155.906 c 3.759,0 7.364,-1.494 10.022,-4.152 2.658,-2.658 4.151,-6.263 4.151,-10.022 0,-3.759 -1.493,-7.364 -4.151,-10.022 -2.658,-2.658 -6.263,-4.151 -10.022,-4.151 -3.759,0 -7.364,1.493 -10.022,4.151 -2.658,2.658 -4.151,6.263 -4.151,10.022 0,3.759 1.493,7.364 4.151,10.022 2.658,2.658 6.263,4.152 10.022,4.152 z"
           style="fill:none;stroke:#000000;stroke-linecap:square;stroke-linejoin:round"
           id="path74"
           inkscape:connector-curvature="0" />
      </g>
      <g
         id="patch_23"
         style="stroke-linecap:square;stroke-linejoin:round">
        <path
           clip-path="url(#pbed307b0b0)"
           d="m 425.197,155.906 c 3.759,0 7.364,-1.494 10.022,-4.152 2.658,-2.658 4.151,-6.263 4.151,-10.022 0,-3.759 -1.493,-7.364 -4.151,-10.022 -2.658,-2.658 -6.263,-4.151 -10.022,-4.151 -3.759,0 -7.364,1.493 -10.022,4.151 -2.658,2.658 -4.151,6.263 -4.151,10.022 0,3.759 1.493,7.364 4.151,10.022 2.658,2.658 6.263,4.152 10.022,4.152 z"
           style="fill:none;stroke:#000000;stroke-linecap:square;stroke-linejoin:round"
           id="path77"
           inkscape:connector-curvature="0" />
      </g>
      <g
         id="patch_24"
         style="stroke-linecap:square;stroke-linejoin:round">
        <path
           clip-path="url(#pbed307b0b0)"
           d="m 283.465,99.2126 c 3.758,0 7.364,-1.4934 10.022,-4.1512 2.657,-2.6579 4.151,-6.2632 4.151,-10.022 0,-3.7588 -1.494,-7.3642 -4.151,-10.022 -2.658,-2.6579 -6.264,-4.1513 -10.022,-4.1513 -3.759,0 -7.365,1.4934 -10.022,4.1513 -2.658,2.6578 -4.152,6.2632 -4.152,10.022 0,3.7588 1.494,7.3641 4.152,10.022 2.657,2.6578 6.263,4.1512 10.022,4.1512 z"
           style="fill:none;stroke:#000000;stroke-linecap:square;stroke-linejoin:round"
           id="path80"
           inkscape:connector-curvature="0" />
      </g>
      <g
         id="patch_25"
         style="stroke-linecap:square;stroke-linejoin:round">
        <path
           clip-path="url(#pbed307b0b0)"
           d="m 396.85,99.2126 c 3.759,0 7.365,-1.4934 10.022,-4.1512 2.658,-2.6579 4.152,-6.2632 4.152,-10.022 0,-3.7588 -1.494,-7.3642 -4.152,-10.022 -2.657,-2.6579 -6.263,-4.1513 -10.022,-4.1513 -3.758,0 -7.364,1.4934 -10.022,4.1513 -2.657,2.6578 -4.151,6.2632 -4.151,10.022 0,3.7588 1.494,7.3641 4.151,10.022 2.658,2.6578 6.264,4.1512 10.022,4.1512 z"
           style="fill:none;stroke:#000000;stroke-linecap:square;stroke-linejoin:round"
           id="path83"
           inkscape:connector-curvature="0" />
      </g>
      <g
         id="patch_26"
         style="stroke-linecap:square;stroke-linejoin:round">
        <path
           clip-path="url(#pbed307b0b0)"
           d="m 56.6929,99.2126 c 3.7588,0 7.3641,-1.4934 10.022,-4.1512 2.6579,-2.6579 4.1512,-6.2632 4.1512,-10.022 0,-3.7588 -1.4933,-7.3642 -4.1512,-10.022 -2.6579,-2.6579 -6.2632,-4.1513 -10.022,-4.1513 -3.7588,0 -7.3641,1.4934 -10.022,4.1513 -2.6578,2.6578 -4.1512,6.2632 -4.1512,10.022 0,3.7588 1.4934,7.3641 4.1512,10.022 2.6579,2.6578 6.2632,4.1512 10.022,4.1512 z"
           style="fill:none;stroke:#000000;stroke-linecap:square;stroke-linejoin:round"
           id="path86"
           inkscape:connector-curvature="0" />
      </g>
      <g
         id="patch_27"
         style="stroke-linecap:square;stroke-linejoin:round">
        <path
           clip-path="url(#pbed307b0b0)"
           d="m 85.0394,155.906 c 3.7588,0 7.3641,-1.494 10.022,-4.152 2.6578,-2.658 4.1512,-6.263 4.1512,-10.022 0,-3.759 -1.4934,-7.364 -4.1512,-10.022 -2.6579,-2.658 -6.2632,-4.151 -10.022,-4.151 -3.7588,0 -7.3642,1.493 -10.022,4.151 -2.6579,2.658 -4.1513,6.263 -4.1513,10.022 0,3.759 1.4934,7.364 4.1513,10.022 2.6578,2.658 6.2632,4.152 10.022,4.152 z"
           style="fill:none;stroke:#000000;stroke-linecap:square;stroke-linejoin:round"
           id="path89"
           inkscape:connector-curvature="0" />
      </g>
      <g
         id="patch_28"
         style="stroke-linecap:square;stroke-linejoin:round">
        <path
           clip-path="url(#pbed307b0b0)"
           d="m 340.157,99.2126 c 3.759,0 7.365,-1.4934 10.022,-4.1512 2.658,-2.6579 4.152,-6.2632 4.152,-10.022 0,-3.7588 -1.494,-7.3642 -4.152,-10.022 -2.657,-2.6579 -6.263,-4.1513 -10.022,-4.1513 -3.758,0 -7.364,1.4934 -10.022,4.1513 -2.657,2.6578 -4.151,6.2632 -4.151,10.022 0,3.7588 1.494,7.3641 4.151,10.022 2.658,2.6578 6.264,4.1512 10.022,4.1512 z"
           style="fill:none;stroke:#000000;stroke-linecap:square;stroke-linejoin:round"
           id="path92"
           inkscape:connector-curvature="0" />
      </g>
      <g
         id="patch_29"
         style="stroke-linecap:square;stroke-linejoin:round">
        <path
           clip-path="url(#pbed307b0b0)"
           d="m 481.89,155.906 c 3.759,0 7.364,-1.494 10.022,-4.152 2.658,-2.658 4.151,-6.263 4.151,-10.022 0,-3.759 -1.493,-7.364 -4.151,-10.022 -2.658,-2.658 -6.263,-4.151 -10.022,-4.151 -3.759,0 -7.364,1.493 -10.022,4.151 -2.658,2.658 -4.151,6.263 -4.151,10.022 0,3.759 1.493,7.364 4.151,10.022 2.658,2.658 6.263,4.152 10.022,4.152 z"
           style="fill:none;stroke:#000000;stroke-linecap:square;stroke-linejoin:round"
           id="path95"
           inkscape:connector-curvature="0" />
      </g>
      <g
         id="patch_30"
         style="stroke-linecap:square;stroke-linejoin:round">
        <path
           clip-path="url(#pbed307b0b0)"
           d="m 198.425,155.906 c 3.759,0 7.364,-1.494 10.022,-4.152 2.658,-2.658 4.151,-6.263 4.151,-10.022 0,-3.759 -1.493,-7.364 -4.151,-10.022 -2.658,-2.658 -6.263,-4.151 -10.022,-4.151 -3.759,0 -7.364,1.493 -10.022,4.151 -2.658,2.658 -4.151,6.263 -4.151,10.022 0,3.759 1.493,7.364 4.151,10.022 2.658,2.658 6.263,4.152 10.022,4.152 z"
           style="fill:none;stroke:#000000;stroke-linecap:square;stroke-linejoin:round"
           id="path98"
           inkscape:connector-curvature="0" />
      </g>
      <g
         id="patch_31"
         style="stroke-linecap:square;stroke-linejoin:round">
        <path
           clip-path="url(#pbed307b0b0)"
           d="m 226.772,99.2126 c 3.758,0 7.364,-1.4934 10.022,-4.1512 2.658,-2.6579 4.151,-6.2632 4.151,-10.022 0,-3.7588 -1.493,-7.3642 -4.151,-10.022 -2.658,-2.6579 -6.264,-4.1513 -10.022,-4.1513 -3.759,0 -7.364,1.4934 -10.022,4.1513 -2.658,2.6578 -4.152,6.2632 -4.152,10.022 0,3.7588 1.494,7.3641 4.152,10.022 2.658,2.6578 6.263,4.1512 10.022,4.1512 z"
           style="fill:none;stroke:#000000;stroke-linecap:square;stroke-linejoin:round"
           id="path101"
           inkscape:connector-curvature="0" />
      </g>
      <g
         id="patch_32"
         style="stroke-linecap:square;stroke-linejoin:round">
        <path
           clip-path="url(#pbed307b0b0)"
           d="m 255.118,240.945 c 3.759,0 7.364,-1.493 10.022,-4.151 2.658,-2.658 4.151,-6.264 4.151,-10.022 0,-3.759 -1.493,-7.364 -4.151,-10.022 -2.658,-2.658 -6.263,-4.152 -10.022,-4.152 -3.759,0 -7.364,1.494 -10.022,4.152 -2.658,2.658 -4.151,6.263 -4.151,10.022 0,3.758 1.493,7.364 4.151,10.022 2.658,2.658 6.263,4.151 10.022,4.151 z"
           style="fill:#b2b2b2;stroke:#000000;stroke-linecap:square;stroke-linejoin:round"
           id="path104"
           inkscape:connector-curvature="0" />
      </g>
      <g
         id="patch_33"
         style="stroke-linecap:square;stroke-linejoin:round">
        <path
           clip-path="url(#pbed307b0b0)"
           d="m 255.118,240.945 c 3.759,0 7.364,-1.493 10.022,-4.151 2.658,-2.658 4.151,-6.264 4.151,-10.022 0,-3.759 -1.493,-7.364 -4.151,-10.022 -2.658,-2.658 -6.263,-4.152 -10.022,-4.152 -3.759,0 -7.364,1.494 -10.022,4.152 -2.658,2.658 -4.151,6.263 -4.151,10.022 0,3.758 1.493,7.364 4.151,10.022 2.658,2.658 6.263,4.151 10.022,4.151 z"
           style="fill:none;stroke:#000000;stroke-linecap:square;stroke-linejoin:round"
           id="path107"
           inkscape:connector-curvature="0" />
      </g>
      <g
         id="patch_34"
         style="stroke-linecap:square;stroke-linejoin:round">
        <path
           clip-path="url(#pbed307b0b0)"
           d="m 481.89,212.598 c 3.759,0 7.364,-1.493 10.022,-4.151 2.658,-2.658 4.151,-6.263 4.151,-10.022 0,-3.759 -1.493,-7.364 -4.151,-10.022 -2.658,-2.658 -6.263,-4.151 -10.022,-4.151 -3.759,0 -7.364,1.493 -10.022,4.151 -2.658,2.658 -4.151,6.263 -4.151,10.022 0,3.759 1.493,7.364 4.151,10.022 2.658,2.658 6.263,4.151 10.022,4.151 z"
           style="fill:none;stroke:#000000;stroke-linecap:square;stroke-linejoin:round"
           id="path110"
           inkscape:connector-curvature="0" />
      </g>
      <g
         id="patch_35"
         style="stroke-linecap:square;stroke-linejoin:round">
        <path
           clip-path="url(#pbed307b0b0)"
           d="m 170.079,99.2126 c 3.759,0 7.364,-1.4934 10.022,-4.1512 2.658,-2.6579 4.151,-6.2632 4.151,-10.022 0,-3.7588 -1.493,-7.3642 -4.151,-10.022 -2.658,-2.6579 -6.263,-4.1513 -10.022,-4.1513 -3.759,0 -7.364,1.4934 -10.022,4.1513 -2.658,2.6578 -4.151,6.2632 -4.151,10.022 0,3.7588 1.493,7.3641 4.151,10.022 2.658,2.6578 6.263,4.1512 10.022,4.1512 z"
           style="fill:none;stroke:#000000;stroke-linecap:square;stroke-linejoin:round"
           id="path113"
           inkscape:connector-curvature="0" />
      </g>
      <g
         id="matplotlib.axis_1"
         style="stroke-linecap:square;stroke-linejoin:round" />
      <g
         id="matplotlib.axis_2"
         style="stroke-linecap:square;stroke-linejoin:round" />
      <use
         transform="matrix(0.11955168,0,0,-0.11955168,61.692913,264.29132)"
         xlink:href="#CMMI12-106"
         id="use128"
         style="stroke-linecap:square;stroke-linejoin:round"
         x="0"
         y="0"
         width="771"
         height="311" />
      <use
         transform="matrix(0.11955168,0,0,-0.11955168,70.529292,264.29132)"
         xlink:href="#CMR17-61"
         id="use130"
         style="stroke-linecap:square;stroke-linejoin:round"
         x="0"
         y="0"
         width="771"
         height="311" />
      <use
         transform="matrix(0.11955168,0,0,-0.11955168,82.455948,264.29132)"
         xlink:href="#CMR17-49"
         id="use132"
         style="stroke-linecap:square;stroke-linejoin:round"
         x="0"
         y="0"
         width="771"
         height="311" />
      <use
         transform="matrix(0.11955168,0,0,-0.11955168,87.938805,264.29132)"
         xlink:href="#CMMI12-59"
         id="use134"
         style="stroke-linecap:square;stroke-linejoin:round"
         x="0"
         y="0"
         width="771"
         height="311" />
      <use
         transform="matrix(0.11955168,0,0,-0.11955168,93.182995,264.29132)"
         xlink:href="#CMMI12-58"
         id="use136"
         style="stroke-linecap:square;stroke-linejoin:round"
         x="0"
         y="0"
         width="771"
         height="311" />
      <use
         transform="matrix(0.11955168,0,0,-0.11955168,98.427185,264.29132)"
         xlink:href="#CMMI12-58"
         id="use138"
         style="stroke-linecap:square;stroke-linejoin:round"
         x="0"
         y="0"
         width="771"
         height="311" />
      <use
         transform="matrix(0.11955168,0,0,-0.11955168,103.67137,264.29132)"
         xlink:href="#CMMI12-58"
         id="use140"
         style="stroke-linecap:square;stroke-linejoin:round"
         x="0"
         y="0"
         width="771"
         height="311" />
      <use
         transform="matrix(0.11955168,0,0,-0.11955168,108.91556,264.29132)"
         xlink:href="#CMMI12-59"
         id="use142"
         style="stroke-linecap:square;stroke-linejoin:round"
         x="0"
         y="0"
         width="771"
         height="311" />
      <use
         transform="matrix(0.11955168,0,0,-0.11955168,269.04055,254.47348)"
         xlink:href="#CMMI12-78"
         id="use144"
         style="stroke-linecap:square;stroke-linejoin:round"
         x="0"
         y="0"
         width="771"
         height="311" />
      <use
         transform="matrix(0.11955168,0,0,-0.11955168,217.59843,253.91666)"
         xlink:href="#CMMI12-105"
         id="use153"
         style="stroke-linecap:square;stroke-linejoin:round"
         x="0"
         y="0"
         width="771"
         height="311" />
      <use
         transform="matrix(0.11955168,0,0,-0.11955168,224.91274,253.91666)"
         xlink:href="#CMR17-61"
         id="use155"
         style="stroke-linecap:square;stroke-linejoin:round"
         x="0"
         y="0"
         width="771"
         height="311" />
      <use
         transform="matrix(0.11955168,0,0,-0.11955168,236.8394,253.91666)"
         xlink:href="#CMR17-49"
         id="use157"
         style="stroke-linecap:square;stroke-linejoin:round"
         x="0"
         y="0"
         width="771"
         height="311" />
      <use
         transform="matrix(0.11955168,0,0,-0.11955168,242.32226,253.91666)"
         xlink:href="#CMMI12-59"
         id="use159"
         style="stroke-linecap:square;stroke-linejoin:round"
         x="0"
         y="0"
         width="771"
         height="311" />
      <use
         transform="matrix(0.11955168,0,0,-0.11955168,247.56645,253.91666)"
         xlink:href="#CMMI12-58"
         id="use161"
         style="stroke-linecap:square;stroke-linejoin:round"
         x="0"
         y="0"
         width="771"
         height="311" />
      <use
         transform="matrix(0.11955168,0,0,-0.11955168,252.81064,253.91666)"
         xlink:href="#CMMI12-58"
         id="use163"
         style="stroke-linecap:square;stroke-linejoin:round"
         x="0"
         y="0"
         width="771"
         height="311" />
      <use
         transform="matrix(0.11955168,0,0,-0.11955168,258.05483,253.91666)"
         xlink:href="#CMMI12-58"
         id="use165"
         style="stroke-linecap:square;stroke-linejoin:round"
         x="0"
         y="0"
         width="771"
         height="311" />
      <use
         transform="matrix(0.11955168,0,0,-0.11955168,263.29902,253.91666)"
         xlink:href="#CMMI12-59"
         id="use167"
         style="stroke-linecap:square;stroke-linejoin:round"
         x="0"
         y="0"
         width="771"
         height="311" />
      <g
         id="g519"
         transform="translate(-1.6)">
        <use
           transform="matrix(0.11955168,0,0,-0.11955168,118.44105,263.36658)"
           xlink:href="#CMMI12-83"
           id="use169"
           style="stroke-linecap:square;stroke-linejoin:round"
           x="0"
           y="0"
           width="771"
           height="311" />
        <use
           transform="matrix(0.08368581,0,0,-0.08368581,125.64039,265.15985)"
           xlink:href="#CMMI12-106"
           id="use171"
           style="stroke-linecap:square;stroke-linejoin:round"
           x="0"
           y="0"
           width="771"
           height="311" />
      </g>
      <g
         id="text_3"
         style="stroke-linecap:square;stroke-linejoin:round">
        <!-- $\sigma_t$ -->
        <defs
           id="defs174">
          <path
             d="m 50.7969,37.6094 c 1.2969,0 4.6093,0 4.6093,3.1875 C 55.4062,43 53.5,43 51.7031,43 L 29.5938,43 C 14.5938,43 3.79688,26.3281 3.79688,14.5625 3.79688,6.09375 9.29688,-1 18.2969,-1 30.0938,-1 43,11.6719 43,26.625 c 0,3.8906 -0.9062,7.6875 -3.2969,10.9844 z M 18.4062,1 c -5.1093,0 -8.81245,3.89062 -8.81245,10.7812 0,5.9844 3.60935,25.8282 18.31245,25.8282 4.2969,0 9.0938,-2.0938 9.0938,-9.7813 0,-3.5 -1.5938,-11.8593 -5.0938,-17.6562 C 28.2969,4.29688 22.9062,1 18.4062,1"
             id="CMMI12-27"
             inkscape:connector-curvature="0"
             style="stroke-linecap:square;stroke-linejoin:round" />
          <path
             d="m 20.0938,40.0938 9.2031,0 c 1.9062,0 2.9062,0 2.9062,1.7968 C 32.2031,43 31.5938,43 29.5938,43 L 20.7969,43 24.5,57.6875 c 0.4062,1.3906 0.4062,1.5937 0.4062,2.3125 0,1.6094 -1.3124,2.5 -2.6093,2.5 -0.7969,0 -3.0938,-0.2969 -3.8907,-3.5156 L 14.5,43 5.09375,43 c -2,0 -2.89063,0 -2.89063,-1.9062 0,-1 0.70313,-1 2.59376,-1 l 8.90622,0 L 7.09375,13.7656 C 6.29688,10.2812 6,9.28125 6,7.98438 6,3.29688 9.29688,-1 14.9062,-1 c 10.0938,0 15.5,14.5781 15.5,15.2656 0,0.6094 -0.4062,0.9063 -1,0.9063 -0.2031,0 -0.6093,0 -0.8124,-0.4063 C 28.5,14.6719 28.4062,14.5625 27.7031,12.9688 25.5938,7.98438 21,1 15.2031,1 12.2031,1 12,3.5 12,5.6875 c 0,0.09375 0,2 0.2969,3.1875 z"
             id="CMMI12-116"
             inkscape:connector-curvature="0"
             style="stroke-linecap:square;stroke-linejoin:round" />
        </defs>
        <g
           transform="matrix(0.12,0,0,-0.12,448.68757,88.509686)"
           id="g178"
           style="stroke-linecap:square;stroke-linejoin:round">
          <use
             transform="matrix(0.99626401,0,0,0.99626401,0,14.943915)"
             xlink:href="#CMMI12-27"
             id="use180"
             style="stroke-linecap:square;stroke-linejoin:round"
             x="0"
             y="0"
             width="771"
             height="311" />
          <use
             transform="matrix(0.69738177,0,0,0.69738177,55.445461,0)"
             xlink:href="#CMMI12-116"
             id="use182"
             style="stroke-linecap:square;stroke-linejoin:round"
             x="0"
             y="0"
             width="771"
             height="311" />
        </g>
      </g>
      <g
         id="text_4"
         style="stroke-linecap:square;stroke-linejoin:round">
        <!-- $sz$ -->
        <defs
           id="defs185">
          <path
             d="m 22.7969,20 c 1.7031,-0.2969 4.4062,-0.8906 5,-1 1.2969,-0.375 5.7969,-1.9688 5.7969,-6.7656 0,-3.07815 -2.7969,-11.14065 -14.3907,-11.14065 -2.1093,0 -9.60935,0 -11.60935,5.71875 4.00005,-0.5 6.00005,2.60938 6.00005,4.8281 0,2.1094 -1.3907,3.2032 -3.3907,3.2032 C 8,14.8438 5.09375,13.1406 5.09375,8.625 5.09375,2.70312 11.0938,-1 19.0938,-1 c 15.2031,0 19.7031,11.1719 19.7031,16.375 0,1.4844 0,4.2812 -3.2031,7.4688 -2.5,2.4062 -4.8907,2.9062 -10.2969,4 -2.7031,0.5937 -7,1.5 -7,5.9843 0,2 1.7969,9.1875 11.2969,9.1875 4.2031,0 8.3124,-1.5625 9.3124,-5.0156 -4.4062,0 -4.6093,-3.7969 -4.6093,-3.8906 0,-2.1094 1.9062,-2.7032 2.7969,-2.7032 1.4062,0 4.2031,1.0782 4.2031,5.2344 C 41.2969,39.7656 37.5,44 29.7031,44 16.5938,44 13.0938,33.75 13.0938,29.6719 13.0938,22.0938 20.5,20.5 22.7969,20"
             id="CMMI12-115"
             inkscape:connector-curvature="0"
             style="stroke-linecap:square;stroke-linejoin:round" />
          <path
             d="M 12.7031,7.59375 C 17,12.5469 20.5,15.6875 25.5,20.25 c 6,5.25 8.5938,7.7656 10,9.2969 C 42.5,36.5312 46,42.3906 46,43.1875 46,44 45.2031,44 45,44 c -0.7031,0 -0.9062,-0.3594 -1.4062,-1.0312 -2.5,-4 -4.8907,-5.9844 -7.5,-5.9844 C 34,36.9844 32.9062,37.8281 31,40.0781 28.9062,42.4219 27.2031,44 24.2969,44 17,44 12.5938,35.2031 12.5938,33.1719 c 0,-0.2813 0.1093,-0.8594 1,-0.8594 0.8124,0 0.9062,0.3594 1.2031,1.0156 1.7031,3.7344 6.5,4.3907 8.4062,4.3907 2.0938,0 4.0938,-0.5938 6.2031,-1.3594 C 33.2031,35 34.7969,35 35.7969,35 36.5,35 36.9062,35 37.4062,35.0938 34.0938,31.1562 28.7031,26.2969 24.2031,22.1562 L 14.0938,12.75 C 8,6.48438 4.29688,0.515625 4.29688,-0.1875 4.29688,-0.796875 4.79688,-1 5.40625,-1 6,-1 6.09375,-0.890625 6.79688,0.21875 8.40625,2.54688 11.5938,6 15.2969,6 17.4062,6 18.4062,5.34375 20.4062,3.01562 22.2969,0.953125 24,-1 27.2031,-1 37,-1 42.5938,11.4688 42.5938,13.7344 c 0,0.4062 -0.0938,0.9844 -1.0938,0.9844 -0.7969,0 -0.9062,-0.3907 -1.2031,-1.3594 -2.2031,-5.7344 -8.0938,-8.07815 -12,-8.07815 -2.0938,0 -4.0938,0.59375 -6.2031,1.35937 C 18.0938,8 17,8 15.7031,8 c -1,0 -2.1093,0 -3,-0.40625"
             id="CMMI12-122"
             inkscape:connector-curvature="0"
             style="stroke-linecap:square;stroke-linejoin:round" />
        </defs>
        <g
           transform="matrix(0.12,0,0,-0.12,476.41382,257.69179)"
           id="g189"
           style="stroke-linecap:square;stroke-linejoin:round">
          <use
             transform="scale(0.99626401,0.99626401)"
             xlink:href="#CMMI12-115"
             id="use191"
             style="stroke-linecap:square;stroke-linejoin:round"
             x="0"
             y="0"
             width="771"
             height="311" />
          <use
             transform="matrix(0.99626401,0,0,0.99626401,45.950048,0)"
             xlink:href="#CMMI12-122"
             id="use193"
             style="stroke-linecap:square;stroke-linejoin:round"
             x="0"
             y="0"
             width="771"
             height="311" />
        </g>
      </g>
      <g
         id="text_5"
         style="stroke-linecap:square;stroke-linejoin:round">
        <!-- $\sigma_v$ -->
        <defs
           id="defs196">
          <path
             d="m 45.7031,37.3281 c 0,6.2813 -3.2031,6.6719 -4,6.6719 -2.4062,0 -4.6093,-2.3906 -4.6093,-4.3906 0,-1.1875 0.7031,-1.8906 1.1093,-2.2813 1,-0.9062 3.5938,-3.5937 3.5938,-8.7812 0,-4.2031 -6,-27.5469 -18,-27.5469 C 17.7031,1 16.5,6.09375 16.5,9.78125 c 0,4.98435 2.2969,11.96875 5,19.15625 1.5938,4.0937 2,5.0937 2,7.0781 C 23.5,40.2188 20.5,44 15.5938,44 6.40625,44 2.70312,29.5312 2.70312,28.7344 c 0,-0.3906 0.39063,-0.8906 1.09376,-0.8906 0.90624,0 1,0.3906 1.40624,1.7968 2.39063,8.5782 6.29688,12.375 10.09378,12.375 0.9062,0 2.6093,0 2.6093,-3.2968 0,-2.5938 -1.1093,-5.4844 -2.6093,-9.2813 C 10.5,16.6719 10.5,13.5781 10.5,11.1719 10.5,8.98438 10.7969,4.89062 13.9062,2.09375 17.5,-1 22.5,-1 23.4062,-1 40,-1 45.7031,31.625 45.7031,37.3281"
             id="CMMI12-118"
             inkscape:connector-curvature="0"
             style="stroke-linecap:square;stroke-linejoin:round" />
        </defs>
        <g
           transform="matrix(0.12,0,0,-0.12,107.99736,88.509686)"
           id="g199"
           style="stroke-linecap:square;stroke-linejoin:round">
          <use
             transform="matrix(0.99626401,0,0,0.99626401,0,14.943915)"
             xlink:href="#CMMI12-27"
             id="use201"
             style="stroke-linecap:square;stroke-linejoin:round"
             x="0"
             y="0"
             width="771"
             height="311" />
          <use
             transform="matrix(0.69738177,0,0,0.69738177,55.445461,0)"
             xlink:href="#CMMI12-118"
             id="use203"
             style="stroke-linecap:square;stroke-linejoin:round"
             x="0"
             y="0"
             width="771"
             height="311" />
        </g>
      </g>
      <g
         id="text_6"
         style="stroke-linecap:square;stroke-linejoin:round">
        <!-- $z_j$ -->
        <g
           transform="matrix(0.12,0,0,-0.12,307.37973,145.97747)"
           id="g206"
           style="stroke-linecap:square;stroke-linejoin:round">
          <use
             transform="matrix(0.99626401,0,0,0.99626401,0,28.504056)"
             xlink:href="#CMMI12-122"
             id="use208"
             style="stroke-linecap:square;stroke-linejoin:round"
             x="0"
             y="0"
             width="771"
             height="311" />
          <use
             transform="matrix(0.69738177,0,0,0.69738177,45.315753,13.560142)"
             xlink:href="#CMMI12-106"
             id="use210"
             style="stroke-linecap:square;stroke-linejoin:round"
             x="0"
             y="0"
             width="771"
             height="311" />
        </g>
      </g>
      <g
         id="text_7"
         style="stroke-linecap:square;stroke-linejoin:round">
        <!-- $t_j$ -->
        <g
           transform="matrix(0.12,0,0,-0.12,421.37093,147.08048)"
           id="g213"
           style="stroke-linecap:square;stroke-linejoin:round">
          <use
             transform="matrix(0.99626401,0,0,0.99626401,0,28.504056)"
             xlink:href="#CMMI12-116"
             id="use215"
             style="stroke-linecap:square;stroke-linejoin:round"
             x="0"
             y="0"
             width="771"
             height="311" />
          <use
             transform="matrix(0.69738177,0,0,0.69738177,35.22633,13.560142)"
             xlink:href="#CMMI12-106"
             id="use217"
             style="stroke-linecap:square;stroke-linejoin:round"
             x="0"
             y="0"
             width="771"
             height="311" />
        </g>
      </g>
      <g
         id="text_8"
         style="stroke-linecap:square;stroke-linejoin:round">
        <!-- $\mu_z$ -->
        <defs
           id="defs220">
          <path
             d="M 14.4062,2.20312 C 16.9062,-0.09375 20.5938,-1 24,-1 30.4062,-1 34.7969,3.29688 37.0938,6.39062 38.0938,1.09375 42.2969,-1 45.7969,-1 c 3,0 5.4062,1.796875 7.2031,5.39062 1.5938,3.39063 3,9.48438 3,9.87498 0,0.5 -0.4062,0.9063 -1,0.9063 -0.9062,0 -1,-0.5 -1.4062,-2 C 52.0938,7.28125 50.2031,1 46.0938,1 43.2031,1 43,3.59375 43,5.59375 c 0,2.29687 0.9062,5.87505 1.5938,8.87505 L 47.4062,25.25 c 0.3907,1.8906 1.5,6.375 2,8.1719 0.5938,2.4062 1.6876,6.6875 1.6876,7.0937 0,1.5 -1.1876,2.5 -2.6876,2.5 -0.9062,0 -3,-0.4062 -3.8124,-3.4062 l -7,-27.7344 c -0.5,-2 -0.5,-2.20312 -1.7969,-3.79688 C 34.5938,6.39062 30.7031,1 24.4062,1 18.7969,1 17,5.09375 17,9.78125 c 0,2.89065 0.9062,6.39065 1.2969,8.07815 l 4.5,17.9687 c 0.5,1.8907 1.2969,5.0781 1.2969,5.6875 C 24.0938,43.1094 22.7969,44 21.5,44 20.5938,44 18.4062,43.7031 17.5938,40.5156 L 3.09375,-17.3125 C 3,-17.8125 2.79688,-18.4062 2.79688,-19 2.79688,-20.5 4,-21.5 5.5,-21.5 c 2.90625,0 3.5,2.2969 4.20312,5.1094 z"
             id="CMMI12-22"
             inkscape:connector-curvature="0"
             style="stroke-linecap:square;stroke-linejoin:round" />
        </defs>
        <g
           transform="matrix(0.12,0,0,-0.12,277.97359,88.775353)"
           id="g223"
           style="stroke-linecap:square;stroke-linejoin:round">
          <use
             transform="matrix(0.99626401,0,0,0.99626401,0,19.371722)"
             xlink:href="#CMMI12-22"
             id="use225"
             style="stroke-linecap:square;stroke-linejoin:round"
             x="0"
             y="0"
             width="771"
             height="311" />
          <use
             transform="matrix(0.69738177,0,0,0.69738177,58.691421,4.427808)"
             xlink:href="#CMMI12-122"
             id="use227"
             style="stroke-linecap:square;stroke-linejoin:round"
             x="0"
             y="0"
             width="771"
             height="311" />
        </g>
      </g>
      <g
         id="text_9"
         style="stroke-linecap:square;stroke-linejoin:round">
        <!-- $\mu_t$ -->
        <g
           transform="matrix(0.12,0,0,-0.12,391.7999,88.775353)"
           id="g230"
           style="stroke-linecap:square;stroke-linejoin:round">
          <use
             transform="matrix(0.99626401,0,0,0.99626401,0,19.371722)"
             xlink:href="#CMMI12-22"
             id="use232"
             style="stroke-linecap:square;stroke-linejoin:round"
             x="0"
             y="0"
             width="771"
             height="311" />
          <use
             transform="matrix(0.69738177,0,0,0.69738177,58.691421,4.427808)"
             xlink:href="#CMMI12-116"
             id="use234"
             style="stroke-linecap:square;stroke-linejoin:round"
             x="0"
             y="0"
             width="771"
             height="311" />
        </g>
      </g>
      <g
         id="text_10"
         style="stroke-linecap:square;stroke-linejoin:round">
        <!-- $\mu_v$ -->
        <g
           transform="matrix(0.12,0,0,-0.12,51.109686,88.775353)"
           id="g237"
           style="stroke-linecap:square;stroke-linejoin:round">
          <use
             transform="matrix(0.99626401,0,0,0.99626401,0,19.371722)"
             xlink:href="#CMMI12-22"
             id="use239"
             style="stroke-linecap:square;stroke-linejoin:round"
             x="0"
             y="0"
             width="771"
             height="311" />
          <use
             transform="matrix(0.69738177,0,0,0.69738177,58.691421,4.427808)"
             xlink:href="#CMMI12-118"
             id="use241"
             style="stroke-linecap:square;stroke-linejoin:round"
             x="0"
             y="0"
             width="771"
             height="311" />
        </g>
      </g>
      <g
         id="text_11"
         style="stroke-linecap:square;stroke-linejoin:round">
        <!-- $v_j$ -->
        <g
           transform="matrix(0.12,0,0,-0.12,80.497397,145.97747)"
           id="g244"
           style="stroke-linecap:square;stroke-linejoin:round">
          <use
             transform="matrix(0.99626401,0,0,0.99626401,0,28.504056)"
             xlink:href="#CMMI12-118"
             id="use246"
             style="stroke-linecap:square;stroke-linejoin:round"
             x="0"
             y="0"
             width="771"
             height="311" />
          <use
             transform="matrix(0.69738177,0,0,0.69738177,47.160581,13.560142)"
             xlink:href="#CMMI12-106"
             id="use248"
             style="stroke-linecap:square;stroke-linejoin:round"
             x="0"
             y="0"
             width="771"
             height="311" />
        </g>
      </g>
      <g
         id="text_12"
         style="stroke-linecap:square;stroke-linejoin:round">
        <!-- $\sigma_z$ -->
        <g
           transform="matrix(0.12,0,0,-0.12,334.86126,88.509686)"
           id="g251"
           style="stroke-linecap:square;stroke-linejoin:round">
          <use
             transform="matrix(0.99626401,0,0,0.99626401,0,14.943915)"
             xlink:href="#CMMI12-27"
             id="use253"
             style="stroke-linecap:square;stroke-linejoin:round"
             x="0"
             y="0"
             width="771"
             height="311" />
          <use
             transform="matrix(0.69738177,0,0,0.69738177,55.445461,0)"
             xlink:href="#CMMI12-122"
             id="use255"
             style="stroke-linecap:square;stroke-linejoin:round"
             x="0"
             y="0"
             width="771"
             height="311" />
        </g>
      </g>
      <g
         id="text_13"
         style="stroke-linecap:square;stroke-linejoin:round">
        <!-- $sv$ -->
        <g
           transform="matrix(0.12,0,0,-0.12,476.30313,144.30597)"
           id="g258"
           style="stroke-linecap:square;stroke-linejoin:round">
          <use
             transform="scale(0.99626401,0.99626401)"
             xlink:href="#CMMI12-115"
             id="use260"
             style="stroke-linecap:square;stroke-linejoin:round"
             x="0"
             y="0"
             width="771"
             height="311" />
          <use
             transform="matrix(0.99626401,0,0,0.99626401,45.950048,0)"
             xlink:href="#CMMI12-118"
             id="use262"
             style="stroke-linecap:square;stroke-linejoin:round"
             x="0"
             y="0"
             width="771"
             height="311" />
        </g>
      </g>
      <g
         id="text_14"
         style="stroke-linecap:square;stroke-linejoin:round">
        <!-- $a_j$ -->
        <defs
           id="defs265">
          <path
             d="m 30.0938,11.875 c -0.5,-1.7031 -0.5,-1.89062 -1.8907,-3.79688 C 26,5.28125 21.5938,1 16.9062,1 12.7969,1 10.5,4.6875 10.5,10.5781 c 0,5.4844 3.0938,16.6563 5,20.8594 3.4062,6.9844 8.0938,10.5781 12,10.5781 6.5938,0 7.9062,-8.1875 7.9062,-8.9844 0,-0.0937 -0.3124,-1.4062 -0.4062,-1.5937 z M 36.5,37.4219 C 35.4062,40.0156 32.7031,44 27.5,44 16.2031,44 4,29.4375 4,14.6719 4,4.79688 9.79688,-1 16.5938,-1 c 5.5,0 10.2031,4.29688 13,7.59375 C 30.5938,0.703125 35.2969,-1 38.2969,-1 c 3,0 5.4062,1.796875 7.2031,5.39062 1.5938,3.39063 3,9.48438 3,9.87498 0,0.5 -0.4062,0.9063 -1,0.9063 -0.9062,0 -1,-0.5 -1.4062,-2 C 44.5938,7.28125 42.7031,1 38.5938,1 35.7031,1 35.5,3.59375 35.5,5.59375 c 0,2.29687 0.2969,3.39063 1.2031,7.28125 0.7031,2.5 1.2031,4.6875 2,7.5781 3.7031,14.9688 4.5938,18.5625 4.5938,19.1563 0,1.4062 -1.0938,2.5 -2.5938,2.5 -3.2031,0 -4,-3.4844 -4.2031,-4.6875"
             id="CMMI12-97"
             inkscape:connector-curvature="0"
             style="stroke-linecap:square;stroke-linejoin:round" />
        </defs>
        <g
           transform="matrix(0.12,0,0,-0.12,193.64038,145.97747)"
           id="g268"
           style="stroke-linecap:square;stroke-linejoin:round">
          <use
             transform="matrix(0.99626401,0,0,0.99626401,0,28.504056)"
             xlink:href="#CMMI12-97"
             id="use270"
             style="stroke-linecap:square;stroke-linejoin:round"
             x="0"
             y="0"
             width="771"
             height="311" />
          <use
             transform="matrix(0.69738177,0,0,0.69738177,51.207858,13.560142)"
             xlink:href="#CMMI12-106"
             id="use272"
             style="stroke-linecap:square;stroke-linejoin:round"
             x="0"
             y="0"
             width="771"
             height="311" />
        </g>
      </g>
      <g
         id="text_15"
         style="stroke-linecap:square;stroke-linejoin:round">
        <!-- $\sigma_a$ -->
        <g
           transform="matrix(0.12,0,0,-0.12,221.19592,88.509686)"
           id="g275"
           style="stroke-linecap:square;stroke-linejoin:round">
          <use
             transform="matrix(0.99626401,0,0,0.99626401,0,14.943915)"
             xlink:href="#CMMI12-27"
             id="use277"
             style="stroke-linecap:square;stroke-linejoin:round"
             x="0"
             y="0"
             width="771"
             height="311" />
          <use
             transform="matrix(0.69738177,0,0,0.69738177,55.445461,0)"
             xlink:href="#CMMI12-97"
             id="use279"
             style="stroke-linecap:square;stroke-linejoin:round"
             x="0"
             y="0"
             width="771"
             height="311" />
        </g>
      </g>
      <g
         id="text_16"
         style="stroke-linecap:square;stroke-linejoin:round">
        <!-- $x_{i,j}$ -->
        <defs
           id="defs282">
          <path
             d="M 47.4062,40.7188 C 44.2031,40.1094 43,37.7188 43,35.8281 c 0,-2.4062 1.9062,-3.2031 3.2969,-3.2031 3,0 5.1093,2.5938 5.1093,5.2969 0,4.1875 -4.8124,6.0781 -9,6.0781 C 36.2969,44 32.9062,38.0156 32,36.125 29.7031,44 23.5,44 21.7031,44 11.5,44 6.09375,30.9375 6.09375,28.7344 c 0,-0.3906 0.40625,-0.8906 1.10937,-0.8906 0.79688,0 1,0.5937 1.20313,1 C 11.7969,39.9219 18.5,42.0156 21.4062,42.0156 c 4.5,0 5.3907,-4.2031 5.3907,-6.5937 0,-2.1875 -0.5938,-4.4844 -1.7969,-9.2813 L 21.5938,12.4688 C 20.0938,6.48438 17.2031,1 11.9062,1 11.4062,1 8.90625,1 6.79688,2.29688 10.4062,3 11.2031,5.98438 11.2031,7.1875 c 0,2 -1.49998,3.1875 -3.40622,3.1875 -2.39063,0 -5,-2.09375 -5,-5.28125 C 2.79688,0.890625 7.5,-1 11.7969,-1 16.5938,-1 20,2.79688 22.0938,6.89062 23.7031,1 28.7031,-1 32.4062,-1 42.5938,-1 48,12.0781 48,14.2656 c 0,0.5 -0.4062,0.9063 -1,0.9063 -0.9062,0 -1,-0.5 -1.2969,-1.2969 C 43,5.09375 37.2031,1 32.7031,1 c -3.5,0 -5.4062,2.59375 -5.4062,6.6875 0,2.1875 0.4062,3.7813 2,10.375 l 3.5,13.5625 c 1.5,6 4.9062,10.3906 9.5,10.3906 0.2031,0 3,0 5.1093,-1.2968"
             id="CMMI12-120"
             inkscape:connector-curvature="0"
             style="stroke-linecap:square;stroke-linejoin:round" />
        </defs>
        <g
           transform="matrix(0.12,0,0,-0.12,247.46199,231.01684)"
           id="g285"
           style="stroke-linecap:square;stroke-linejoin:round">
          <use
             transform="matrix(0.99626401,0,0,0.99626401,0,28.504056)"
             xlink:href="#CMMI12-120"
             id="use287"
             style="stroke-linecap:square;stroke-linejoin:round"
             x="0"
             y="0"
             width="771"
             height="311" />
          <use
             transform="matrix(0.69738177,0,0,0.69738177,55.43406,13.560142)"
             xlink:href="#CMMI12-105"
             id="use289"
             style="stroke-linecap:square;stroke-linejoin:round"
             x="0"
             y="0"
             width="771"
             height="311" />
          <use
             transform="matrix(0.69738177,0,0,0.69738177,78.728967,13.560142)"
             xlink:href="#CMMI12-59"
             id="use291"
             style="stroke-linecap:square;stroke-linejoin:round"
             x="0"
             y="0"
             width="771"
             height="311" />
          <use
             transform="matrix(0.69738177,0,0,0.69738177,97.6969,13.560142)"
             xlink:href="#CMMI12-106"
             id="use293"
             style="stroke-linecap:square;stroke-linejoin:round"
             x="0"
             y="0"
             width="771"
             height="311" />
        </g>
      </g>
      <g
         id="text_17"
         style="stroke-linecap:square;stroke-linejoin:round">
        <!-- $st$ -->
        <g
           transform="matrix(0.12,0,0,-0.12,477.01918,202.10189)"
           id="g296"
           style="stroke-linecap:square;stroke-linejoin:round">
          <use
             transform="scale(0.99626401,0.99626401)"
             xlink:href="#CMMI12-115"
             id="use298"
             style="stroke-linecap:square;stroke-linejoin:round"
             x="0"
             y="0"
             width="771"
             height="311" />
          <use
             transform="matrix(0.99626401,0,0,0.99626401,45.950048,0)"
             xlink:href="#CMMI12-116"
             id="use300"
             style="stroke-linecap:square;stroke-linejoin:round"
             x="0"
             y="0"
             width="771"
             height="311" />
        </g>
      </g>
      <g
         id="text_18"
         style="stroke-linecap:square;stroke-linejoin:round">
        <!-- $\mu_a$ -->
        <g
           transform="matrix(0.12,0,0,-0.12,164.30825,88.775353)"
           id="g303"
           style="stroke-linecap:square;stroke-linejoin:round">
          <use
             transform="matrix(0.99626401,0,0,0.99626401,0,19.371722)"
             xlink:href="#CMMI12-22"
             id="use305"
             style="stroke-linecap:square;stroke-linejoin:round"
             x="0"
             y="0"
             width="771"
             height="311" />
          <use
             transform="matrix(0.69738177,0,0,0.69738177,58.691421,4.427808)"
             xlink:href="#CMMI12-97"
             id="use307"
             style="stroke-linecap:square;stroke-linejoin:round"
             x="0"
             y="0"
             width="771"
             height="311" />
        </g>
      </g>
    </g>
    <g
       transform="matrix(1.2,0,0,1.2,464.85316,215.03479)"
       ns0:version="1.4.0"
       ns0:texconverter="pdflatex"
       ns0:pdfconverter="inkscape"
       ns0:text="$st=0$"
       ns0:preamble="/home/hcp4715/.config/inkscape/extensions/textext/default_packages.tex"
       ns0:scale="0.9"
       ns0:alignment="middle center"
       ns0:inkscapeversion="1.1"
       ns0:jacobian_sqrt="1.2"
       id="g3365">
      <defs
         id="id-32f2d00b-fa7b-4fea-88e3-70c29d08a31e">
        <g
           id="id-cca1e1d5-c95a-427f-89c6-42a2c695a93a">
          <symbol
             overflow="visible"
             id="id-1c01ceed-c180-4f0d-bbb3-1efea65c4182">
            <path
               style="stroke:none"
               d=""
               id="id-dfaab7c7-a4cc-4748-babf-9c8b2aff4b9d" />
          </symbol>
          <symbol
             overflow="visible"
             id="id-b602eb93-a2f4-4818-85b9-a72f70044b6c">
            <path
               style="stroke:none"
               d="M 3.890625,-3.734375 C 3.625,-3.71875 3.421875,-3.5 3.421875,-3.28125 c 0,0.140625 0.09375,0.296875 0.3125,0.296875 0.21875,0 0.453125,-0.171875 0.453125,-0.5625 C 4.1875,-4 3.765625,-4.40625 3,-4.40625 c -1.3125,0 -1.6875,1.015625 -1.6875,1.453125 0,0.78125 0.734375,0.921875 1.03125,0.984375 0.515625,0.109375 1.03125,0.21875 1.03125,0.765625 0,0.25 -0.21875,1.09375 -1.421875,1.09375 -0.140625,0 -0.90625,0 -1.140625,-0.53125 0.390625,0.046875 0.640625,-0.25 0.640625,-0.53125 0,-0.21875 -0.171875,-0.34375 -0.375,-0.34375 -0.265625,0 -0.5625,0.203125 -0.5625,0.65625 0,0.5625 0.578125,0.96875 1.421875,0.96875 1.625,0 2.015625,-1.203125 2.015625,-1.65625 0,-0.359375 -0.1875,-0.609375 -0.3125,-0.71875 -0.265625,-0.28125 -0.5625,-0.34375 -1,-0.421875 -0.359375,-0.078125 -0.75,-0.15625 -0.75,-0.609375 C 1.890625,-3.578125 2.125,-4.1875 3,-4.1875 c 0.25,0 0.75,0.078125 0.890625,0.453125 z m 0,0"
               id="id-0feb66e9-35c6-46e8-b305-5e9b342dd753" />
          </symbol>
          <symbol
             overflow="visible"
             id="id-be98bd68-2689-4ea4-ada9-d37c60f1dd60">
            <path
               style="stroke:none"
               d="m 2.046875,-3.984375 h 0.9375 c 0.203125,0 0.3125,0 0.3125,-0.203125 0,-0.109375 -0.109375,-0.109375 -0.28125,-0.109375 h -0.875 C 2.5,-5.71875 2.546875,-5.90625 2.546875,-5.96875 c 0,-0.171875 -0.125,-0.265625 -0.296875,-0.265625 -0.03125,0 -0.3125,0 -0.390625,0.359375 L 1.46875,-4.296875 h -0.9375 c -0.203125,0 -0.296875,0 -0.296875,0.1875 0,0.125 0.078125,0.125 0.28125,0.125 h 0.875 C 0.671875,-1.15625 0.625,-0.984375 0.625,-0.8125 0.625,-0.265625 1,0.109375 1.546875,0.109375 2.5625,0.109375 3.125,-1.34375 3.125,-1.421875 3.125,-1.53125 3.046875,-1.53125 3.015625,-1.53125 2.921875,-1.53125 2.90625,-1.5 2.859375,-1.390625 2.4375,-0.34375 1.90625,-0.109375 1.5625,-0.109375 c -0.203125,0 -0.3125,-0.125 -0.3125,-0.453125 0,-0.25 0.03125,-0.3125 0.0625,-0.484375 z m 0,0"
               id="id-3bf5e8ea-cb24-42c6-895b-e57ad561afa1" />
          </symbol>
          <symbol
             overflow="visible"
             id="id-774079c0-f5c0-4c1b-8e35-9e8ebc8227cd">
            <path
               style="stroke:none"
               d=""
               id="id-500a0c0f-9b47-4df8-bdde-58ae4c558a72" />
          </symbol>
          <symbol
             overflow="visible"
             id="id-57d12058-51af-4c08-802c-581d07ea3add">
            <path
               style="stroke:none"
               d="m 6.84375,-3.265625 c 0.15625,0 0.34375,0 0.34375,-0.1875 C 7.1875,-3.65625 7,-3.65625 6.859375,-3.65625 h -5.96875 c -0.140625,0 -0.328125,0 -0.328125,0.203125 0,0.1875 0.1875,0.1875 0.328125,0.1875 z m 0.015625,1.9375 c 0.140625,0 0.328125,0 0.328125,-0.203125 0,-0.1875 -0.1875,-0.1875 -0.34375,-0.1875 H 0.890625 c -0.140625,0 -0.328125,0 -0.328125,0.1875 0,0.203125 0.1875,0.203125 0.328125,0.203125 z m 0,0"
               id="id-1bf37755-50a8-4cae-b475-13370f0fe0c1" />
          </symbol>
          <symbol
             overflow="visible"
             id="id-6fba0b67-eeeb-4e30-a3d3-b870838cf3bf">
            <path
               style="stroke:none"
               d="m 4.578125,-3.1875 c 0,-0.796875 -0.046875,-1.59375 -0.390625,-2.328125 -0.453125,-0.96875 -1.28125,-1.125 -1.6875,-1.125 -0.609375,0 -1.328125,0.265625 -1.75,1.1875 -0.3125,0.6875 -0.359375,1.46875 -0.359375,2.265625 0,0.75 0.03125,1.640625 0.453125,2.40625 0.421875,0.796875 1.15625,1 1.640625,1 0.53125,0 1.296875,-0.203125 1.734375,-1.15625 0.3125,-0.6875 0.359375,-1.46875 0.359375,-2.25 z M 2.484375,0 C 2.09375,0 1.5,-0.25 1.328125,-1.203125 1.21875,-1.796875 1.21875,-2.71875 1.21875,-3.3125 c 0,-0.640625 0,-1.296875 0.078125,-1.828125 0.1875,-1.1875 0.9375,-1.28125 1.1875,-1.28125 0.328125,0 0.984375,0.1875 1.171875,1.171875 0.109375,0.5625 0.109375,1.3125 0.109375,1.9375 0,0.75 0,1.421875 -0.109375,2.0625 C 3.5,-0.296875 2.9375,0 2.484375,0 Z m 0,0"
               id="id-09fc8d59-23e1-44b0-b0c6-3547a9987971" />
          </symbol>
        </g>
      </defs>
      <g
         id="id-231ff3df-4343-4c37-8858-2ab80e491c1b"
         transform="translate(-149.228,-128.124)">
        <g
           style="fill:#000000"
           id="id-5533bdb4-bd59-4328-bd03-38a04a1d0cc1">
          <g
             id="id-54b57f47-455c-4323-83e5-a9f77029aeba"
             transform="translate(148.712,134.765)">
            <path
               style="color:#000000;-inkscape-stroke:none"
               d="M 3.890625,-3.734375 C 3.625,-3.71875 3.421875,-3.5 3.421875,-3.28125 c 0,0.140625 0.09375,0.296875 0.3125,0.296875 0.21875,0 0.453125,-0.171875 0.453125,-0.5625 C 4.1875,-4 3.765625,-4.40625 3,-4.40625 c -1.3125,0 -1.6875,1.015625 -1.6875,1.453125 0,0.78125 0.734375,0.921875 1.03125,0.984375 0.515625,0.109375 1.03125,0.21875 1.03125,0.765625 0,0.25 -0.21875,1.09375 -1.421875,1.09375 -0.140625,0 -0.90625,0 -1.140625,-0.53125 0.390625,0.046875 0.640625,-0.25 0.640625,-0.53125 0,-0.21875 -0.171875,-0.34375 -0.375,-0.34375 -0.265625,0 -0.5625,0.203125 -0.5625,0.65625 0,0.5625 0.578125,0.96875 1.421875,0.96875 1.625,0 2.015625,-1.203125 2.015625,-1.65625 0,-0.359375 -0.1875,-0.609375 -0.3125,-0.71875 -0.265625,-0.28125 -0.5625,-0.34375 -1,-0.421875 -0.359375,-0.078125 -0.75,-0.15625 -0.75,-0.609375 C 1.890625,-3.578125 2.125,-4.1875 3,-4.1875 c 0.25,0 0.75,0.078125 0.890625,0.453125 z m 0,0"
               id="id-f9f7eaa8-8502-40a8-ae3d-c891d9bbbef6" />
          </g>
          <g
             id="id-8e7e3e85-388b-4648-ba18-15744b5b918f"
             transform="translate(153.382,134.765)">
            <path
               style="color:#000000;-inkscape-stroke:none"
               d="m 2.046875,-3.984375 h 0.9375 c 0.203125,0 0.3125,0 0.3125,-0.203125 0,-0.109375 -0.109375,-0.109375 -0.28125,-0.109375 h -0.875 C 2.5,-5.71875 2.546875,-5.90625 2.546875,-5.96875 c 0,-0.171875 -0.125,-0.265625 -0.296875,-0.265625 -0.03125,0 -0.3125,0 -0.390625,0.359375 L 1.46875,-4.296875 h -0.9375 c -0.203125,0 -0.296875,0 -0.296875,0.1875 0,0.125 0.078125,0.125 0.28125,0.125 h 0.875 C 0.671875,-1.15625 0.625,-0.984375 0.625,-0.8125 0.625,-0.265625 1,0.109375 1.546875,0.109375 2.5625,0.109375 3.125,-1.34375 3.125,-1.421875 3.125,-1.53125 3.046875,-1.53125 3.015625,-1.53125 2.921875,-1.53125 2.90625,-1.5 2.859375,-1.390625 2.4375,-0.34375 1.90625,-0.109375 1.5625,-0.109375 c -0.203125,0 -0.3125,-0.125 -0.3125,-0.453125 0,-0.25 0.03125,-0.3125 0.0625,-0.484375 z m 0,0"
               id="id-92bc7fbf-cfdd-4b90-8da6-f4ab1f6565db" />
          </g>
        </g>
        <g
           style="fill:#000000"
           id="id-d7c8aabf-6316-49ba-838d-807920adc48d">
          <g
             id="id-ec2b6183-742e-4a0e-bb0d-75e9f3026a07"
             transform="translate(159.747,134.765)">
            <path
               style="color:#000000;-inkscape-stroke:none"
               d="m 6.84375,-3.265625 c 0.15625,0 0.34375,0 0.34375,-0.1875 C 7.1875,-3.65625 7,-3.65625 6.859375,-3.65625 h -5.96875 c -0.140625,0 -0.328125,0 -0.328125,0.203125 0,0.1875 0.1875,0.1875 0.328125,0.1875 z m 0.015625,1.9375 c 0.140625,0 0.328125,0 0.328125,-0.203125 0,-0.1875 -0.1875,-0.1875 -0.34375,-0.1875 H 0.890625 c -0.140625,0 -0.328125,0 -0.328125,0.1875 0,0.203125 0.1875,0.203125 0.328125,0.203125 z m 0,0"
               id="id-861299c4-3002-4e5c-bf5e-361d4a7b142b" />
          </g>
        </g>
        <g
           style="fill:#000000"
           id="id-56d64d74-06be-4201-9347-89ae6f14585c">
          <g
             id="id-8bfbafc3-635c-4851-b335-a79447332682"
             transform="translate(170.266,134.765)">
            <path
               style="color:#000000;-inkscape-stroke:none"
               d="m 4.578125,-3.1875 c 0,-0.796875 -0.046875,-1.59375 -0.390625,-2.328125 -0.453125,-0.96875 -1.28125,-1.125 -1.6875,-1.125 -0.609375,0 -1.328125,0.265625 -1.75,1.1875 -0.3125,0.6875 -0.359375,1.46875 -0.359375,2.265625 0,0.75 0.03125,1.640625 0.453125,2.40625 0.421875,0.796875 1.15625,1 1.640625,1 0.53125,0 1.296875,-0.203125 1.734375,-1.15625 0.3125,-0.6875 0.359375,-1.46875 0.359375,-2.25 z M 2.484375,0 C 2.09375,0 1.5,-0.25 1.328125,-1.203125 1.21875,-1.796875 1.21875,-2.71875 1.21875,-3.3125 c 0,-0.640625 0,-1.296875 0.078125,-1.828125 0.1875,-1.1875 0.9375,-1.28125 1.1875,-1.28125 0.328125,0 0.984375,0.1875 1.171875,1.171875 0.109375,0.5625 0.109375,1.3125 0.109375,1.9375 0,0.75 0,1.421875 -0.109375,2.0625 C 3.5,-0.296875 2.9375,0 2.484375,0 Z m 0,0"
               id="id-38c8f51d-1b07-4b91-8deb-7c2cdd0cffca" />
          </g>
        </g>
      </g>
    </g>
    <g
       transform="matrix(1.2,0,0,1.2,462.26584,157.95902)"
       ns0:version="1.4.0"
       ns0:texconverter="pdflatex"
       ns0:pdfconverter="inkscape"
       ns0:text="$sv=0$"
       ns0:preamble="/home/hcp4715/.config/inkscape/extensions/textext/default_packages.tex"
       ns0:scale="0.9"
       ns0:alignment="middle center"
       ns0:inkscapeversion="1.1"
       ns0:jacobian_sqrt="1.2"
       id="g5953">
      <defs
         id="id-8b5d9ce7-5d5c-496e-9850-2212055a32c4">
        <g
           id="id-6281aa1f-c8b0-49c3-a98b-20c4c119acfb">
          <symbol
             overflow="visible"
             id="id-9b1fbf48-74f4-495f-a48a-f94e81e8aeb6">
            <path
               style="stroke:none;stroke-width:0"
               d=""
               id="id-e1711e8f-02ac-4ef7-a55c-3539b580cb20" />
          </symbol>
          <symbol
             overflow="visible"
             id="id-651c2454-9f9b-413b-8902-07b37965872f">
            <path
               style="stroke:none;stroke-width:0"
               d="M 3.890625,-3.734375 C 3.625,-3.71875 3.421875,-3.5 3.421875,-3.28125 c 0,0.140625 0.09375,0.296875 0.3125,0.296875 0.21875,0 0.453125,-0.171875 0.453125,-0.5625 C 4.1875,-4 3.765625,-4.40625 3,-4.40625 c -1.3125,0 -1.6875,1.015625 -1.6875,1.453125 0,0.78125 0.734375,0.921875 1.03125,0.984375 0.515625,0.109375 1.03125,0.21875 1.03125,0.765625 0,0.25 -0.21875,1.09375 -1.421875,1.09375 -0.140625,0 -0.90625,0 -1.140625,-0.53125 0.390625,0.046875 0.640625,-0.25 0.640625,-0.53125 0,-0.21875 -0.171875,-0.34375 -0.375,-0.34375 -0.265625,0 -0.5625,0.203125 -0.5625,0.65625 0,0.5625 0.578125,0.96875 1.421875,0.96875 1.625,0 2.015625,-1.203125 2.015625,-1.65625 0,-0.359375 -0.1875,-0.609375 -0.3125,-0.71875 -0.265625,-0.28125 -0.5625,-0.34375 -1,-0.421875 -0.359375,-0.078125 -0.75,-0.15625 -0.75,-0.609375 C 1.890625,-3.578125 2.125,-4.1875 3,-4.1875 c 0.25,0 0.75,0.078125 0.890625,0.453125 z m 0,0"
               id="id-af3bc975-c93c-4bb7-bebd-2b59a5c010bd" />
          </symbol>
          <symbol
             overflow="visible"
             id="id-971c8aa4-4efd-4a8c-ac7c-cc908fedfbf7">
            <path
               style="stroke:none;stroke-width:0"
               d="m 4.671875,-3.703125 c 0,-0.546875 -0.265625,-0.703125 -0.4375,-0.703125 -0.25,0 -0.5,0.265625 -0.5,0.484375 0,0.125 0.046875,0.1875 0.15625,0.296875 0.21875,0.203125 0.34375,0.453125 0.34375,0.8125 0,0.421875 -0.609375,2.703125 -1.765625,2.703125 -0.515625,0 -0.75,-0.34375 -0.75,-0.875 0,-0.546875 0.28125,-1.28125 0.578125,-2.109375 0.078125,-0.171875 0.125,-0.3125 0.125,-0.5 0,-0.4375 -0.3125,-0.8125 -0.8125,-0.8125 -0.9375,0 -1.3125,1.453125 -1.3125,1.53125 0,0.109375 0.09375,0.109375 0.109375,0.109375 0.109375,0 0.109375,-0.03125 0.15625,-0.1875 0.296875,-1 0.71875,-1.234375 1.015625,-1.234375 0.078125,0 0.25,0 0.25,0.3125 0,0.25 -0.109375,0.53125 -0.171875,0.703125 -0.4375,1.15625 -0.5625,1.609375 -0.5625,2.046875 0,1.078125 0.875,1.234375 1.328125,1.234375 1.671875,0 2.25,-3.296875 2.25,-3.8125 z m 0,0"
               id="id-89e2dc13-b4ed-4c31-af5c-f3ed21f61080" />
          </symbol>
          <symbol
             overflow="visible"
             id="id-1287a3d3-78cc-4378-8f1f-52a9194322d0">
            <path
               style="stroke:none;stroke-width:0"
               d=""
               id="id-4977d034-3d42-4930-999d-70db91796b09" />
          </symbol>
          <symbol
             overflow="visible"
             id="id-1073002f-f87e-482a-b2c3-3390362c66c2">
            <path
               style="stroke:none;stroke-width:0"
               d="m 6.84375,-3.265625 c 0.15625,0 0.34375,0 0.34375,-0.1875 C 7.1875,-3.65625 7,-3.65625 6.859375,-3.65625 h -5.96875 c -0.140625,0 -0.328125,0 -0.328125,0.203125 0,0.1875 0.1875,0.1875 0.328125,0.1875 z m 0.015625,1.9375 c 0.140625,0 0.328125,0 0.328125,-0.203125 0,-0.1875 -0.1875,-0.1875 -0.34375,-0.1875 H 0.890625 c -0.140625,0 -0.328125,0 -0.328125,0.1875 0,0.203125 0.1875,0.203125 0.328125,0.203125 z m 0,0"
               id="id-e3521b03-be8c-4262-b2d0-091f6e72fc8f" />
          </symbol>
          <symbol
             overflow="visible"
             id="id-15ae30f2-0ce6-461a-81f0-c8251399d437">
            <path
               style="stroke:none;stroke-width:0"
               d="m 4.578125,-3.1875 c 0,-0.796875 -0.046875,-1.59375 -0.390625,-2.328125 -0.453125,-0.96875 -1.28125,-1.125 -1.6875,-1.125 -0.609375,0 -1.328125,0.265625 -1.75,1.1875 -0.3125,0.6875 -0.359375,1.46875 -0.359375,2.265625 0,0.75 0.03125,1.640625 0.453125,2.40625 0.421875,0.796875 1.15625,1 1.640625,1 0.53125,0 1.296875,-0.203125 1.734375,-1.15625 0.3125,-0.6875 0.359375,-1.46875 0.359375,-2.25 z M 2.484375,0 C 2.09375,0 1.5,-0.25 1.328125,-1.203125 1.21875,-1.796875 1.21875,-2.71875 1.21875,-3.3125 c 0,-0.640625 0,-1.296875 0.078125,-1.828125 0.1875,-1.1875 0.9375,-1.28125 1.1875,-1.28125 0.328125,0 0.984375,0.1875 1.171875,1.171875 0.109375,0.5625 0.109375,1.3125 0.109375,1.9375 0,0.75 0,1.421875 -0.109375,2.0625 C 3.5,-0.296875 2.9375,0 2.484375,0 Z m 0,0"
               id="id-591ed693-a744-4335-b0ca-f01702bdf58c" />
          </symbol>
        </g>
      </defs>
      <g
         id="id-756c51bd-204f-4f38-9d5d-78120a6672bc"
         transform="translate(-149.228,-128.124)">
        <g
           style="fill:#000000"
           id="id-3951d30b-f631-48e0-8c2a-6b5716593551">
          <g
             id="id-ce3338e6-412c-403b-811f-1be632ccc766"
             transform="translate(148.712,134.765)">
            <path
               style="color:#000000;-inkscape-stroke:none"
               d="M 3.890625,-3.734375 C 3.625,-3.71875 3.421875,-3.5 3.421875,-3.28125 c 0,0.140625 0.09375,0.296875 0.3125,0.296875 0.21875,0 0.453125,-0.171875 0.453125,-0.5625 C 4.1875,-4 3.765625,-4.40625 3,-4.40625 c -1.3125,0 -1.6875,1.015625 -1.6875,1.453125 0,0.78125 0.734375,0.921875 1.03125,0.984375 0.515625,0.109375 1.03125,0.21875 1.03125,0.765625 0,0.25 -0.21875,1.09375 -1.421875,1.09375 -0.140625,0 -0.90625,0 -1.140625,-0.53125 0.390625,0.046875 0.640625,-0.25 0.640625,-0.53125 0,-0.21875 -0.171875,-0.34375 -0.375,-0.34375 -0.265625,0 -0.5625,0.203125 -0.5625,0.65625 0,0.5625 0.578125,0.96875 1.421875,0.96875 1.625,0 2.015625,-1.203125 2.015625,-1.65625 0,-0.359375 -0.1875,-0.609375 -0.3125,-0.71875 -0.265625,-0.28125 -0.5625,-0.34375 -1,-0.421875 -0.359375,-0.078125 -0.75,-0.15625 -0.75,-0.609375 C 1.890625,-3.578125 2.125,-4.1875 3,-4.1875 c 0.25,0 0.75,0.078125 0.890625,0.453125 z m 0,0"
               id="id-64177bd1-6b80-4eb6-b77e-4518d5fafab1" />
          </g>
          <g
             id="id-5afbafb5-a6ae-434a-b315-2ca9f17dd70f"
             transform="translate(153.382,134.765)">
            <path
               style="color:#000000;-inkscape-stroke:none"
               d="m 4.671875,-3.703125 c 0,-0.546875 -0.265625,-0.703125 -0.4375,-0.703125 -0.25,0 -0.5,0.265625 -0.5,0.484375 0,0.125 0.046875,0.1875 0.15625,0.296875 0.21875,0.203125 0.34375,0.453125 0.34375,0.8125 0,0.421875 -0.609375,2.703125 -1.765625,2.703125 -0.515625,0 -0.75,-0.34375 -0.75,-0.875 0,-0.546875 0.28125,-1.28125 0.578125,-2.109375 0.078125,-0.171875 0.125,-0.3125 0.125,-0.5 0,-0.4375 -0.3125,-0.8125 -0.8125,-0.8125 -0.9375,0 -1.3125,1.453125 -1.3125,1.53125 0,0.109375 0.09375,0.109375 0.109375,0.109375 0.109375,0 0.109375,-0.03125 0.15625,-0.1875 0.296875,-1 0.71875,-1.234375 1.015625,-1.234375 0.078125,0 0.25,0 0.25,0.3125 0,0.25 -0.109375,0.53125 -0.171875,0.703125 -0.4375,1.15625 -0.5625,1.609375 -0.5625,2.046875 0,1.078125 0.875,1.234375 1.328125,1.234375 1.671875,0 2.25,-3.296875 2.25,-3.8125 z m 0,0"
               id="id-de99cc1f-1e42-4daf-82cf-5affc2b439a3" />
          </g>
        </g>
        <g
           style="fill:#000000"
           id="id-c8fd646e-b4d1-4b2c-9822-5a4f300c98e1">
          <g
             id="id-c527b935-eac5-445c-abf2-e882c7137b0e"
             transform="translate(161.336,134.765)">
            <path
               style="color:#000000;-inkscape-stroke:none"
               d="m 6.84375,-3.265625 c 0.15625,0 0.34375,0 0.34375,-0.1875 C 7.1875,-3.65625 7,-3.65625 6.859375,-3.65625 h -5.96875 c -0.140625,0 -0.328125,0 -0.328125,0.203125 0,0.1875 0.1875,0.1875 0.328125,0.1875 z m 0.015625,1.9375 c 0.140625,0 0.328125,0 0.328125,-0.203125 0,-0.1875 -0.1875,-0.1875 -0.34375,-0.1875 H 0.890625 c -0.140625,0 -0.328125,0 -0.328125,0.1875 0,0.203125 0.1875,0.203125 0.328125,0.203125 z m 0,0"
               id="id-2a5c0def-b928-40e0-8282-2ba58b9196a5" />
          </g>
        </g>
        <g
           style="fill:#000000"
           id="id-24f54ffa-5735-4817-b4c0-7706bf981e0c">
          <g
             id="id-23060a4f-588f-44df-ad52-7af7c04c1f93"
             transform="translate(171.855,134.765)">
            <path
               style="color:#000000;-inkscape-stroke:none"
               d="m 4.578125,-3.1875 c 0,-0.796875 -0.046875,-1.59375 -0.390625,-2.328125 -0.453125,-0.96875 -1.28125,-1.125 -1.6875,-1.125 -0.609375,0 -1.328125,0.265625 -1.75,1.1875 -0.3125,0.6875 -0.359375,1.46875 -0.359375,2.265625 0,0.75 0.03125,1.640625 0.453125,2.40625 0.421875,0.796875 1.15625,1 1.640625,1 0.53125,0 1.296875,-0.203125 1.734375,-1.15625 0.3125,-0.6875 0.359375,-1.46875 0.359375,-2.25 z M 2.484375,0 C 2.09375,0 1.5,-0.25 1.328125,-1.203125 1.21875,-1.796875 1.21875,-2.71875 1.21875,-3.3125 c 0,-0.640625 0,-1.296875 0.078125,-1.828125 0.1875,-1.1875 0.9375,-1.28125 1.1875,-1.28125 0.328125,0 0.984375,0.1875 1.171875,1.171875 0.109375,0.5625 0.109375,1.3125 0.109375,1.9375 0,0.75 0,1.421875 -0.109375,2.0625 C 3.5,-0.296875 2.9375,0 2.484375,0 Z m 0,0"
               id="id-06399588-7f4a-4faf-bcf5-0dc3eb7a0228" />
          </g>
        </g>
      </g>
    </g>
    <g
       transform="matrix(1.2,0,0,1.2,463.23745,231.31686)"
       ns0:version="1.4.0"
       ns0:texconverter="pdflatex"
       ns0:pdfconverter="inkscape"
       ns0:text="$sz=0$"
       ns0:preamble="/home/hcp4715/.config/inkscape/extensions/textext/default_packages.tex"
       ns0:scale="0.9"
       ns0:alignment="middle center"
       ns0:inkscapeversion="1.1"
       ns0:jacobian_sqrt="1.2"
       id="g8486">
      <defs
         id="id-9baf0cfd-5844-4467-99f1-75163772b173">
        <g
           id="id-3c1d0ad9-ee29-4959-82ac-2483f33c397f">
          <symbol
             overflow="visible"
             id="id-a111e44f-73dd-4d40-9e58-dee3746b8277">
            <path
               style="stroke:none;stroke-width:0"
               d=""
               id="id-c54c75fa-0e87-462b-82b3-994873f4f1d6" />
          </symbol>
          <symbol
             overflow="visible"
             id="id-101f8789-cc98-442e-855e-a5921211b80f">
            <path
               style="stroke:none;stroke-width:0"
               d="M 3.890625,-3.734375 C 3.625,-3.71875 3.421875,-3.5 3.421875,-3.28125 c 0,0.140625 0.09375,0.296875 0.3125,0.296875 0.21875,0 0.453125,-0.171875 0.453125,-0.5625 C 4.1875,-4 3.765625,-4.40625 3,-4.40625 c -1.3125,0 -1.6875,1.015625 -1.6875,1.453125 0,0.78125 0.734375,0.921875 1.03125,0.984375 0.515625,0.109375 1.03125,0.21875 1.03125,0.765625 0,0.25 -0.21875,1.09375 -1.421875,1.09375 -0.140625,0 -0.90625,0 -1.140625,-0.53125 0.390625,0.046875 0.640625,-0.25 0.640625,-0.53125 0,-0.21875 -0.171875,-0.34375 -0.375,-0.34375 -0.265625,0 -0.5625,0.203125 -0.5625,0.65625 0,0.5625 0.578125,0.96875 1.421875,0.96875 1.625,0 2.015625,-1.203125 2.015625,-1.65625 0,-0.359375 -0.1875,-0.609375 -0.3125,-0.71875 -0.265625,-0.28125 -0.5625,-0.34375 -1,-0.421875 -0.359375,-0.078125 -0.75,-0.15625 -0.75,-0.609375 C 1.890625,-3.578125 2.125,-4.1875 3,-4.1875 c 0.25,0 0.75,0.078125 0.890625,0.453125 z m 0,0"
               id="id-96ec0269-546a-4c25-bdd6-2d654404a0c3" />
          </symbol>
          <symbol
             overflow="visible"
             id="id-e66e8030-17f7-459a-9fc4-1365e62c60a7">
            <path
               style="stroke:none;stroke-width:0"
               d="m 1.328125,-0.828125 c 0.53125,-0.578125 0.828125,-0.828125 1.1875,-1.140625 0,0 0.609375,-0.53125 0.96875,-0.890625 C 4.4375,-3.78125 4.65625,-4.265625 4.65625,-4.3125 c 0,-0.09375 -0.09375,-0.09375 -0.109375,-0.09375 -0.078125,0 -0.09375,0.015625 -0.15625,0.109375 -0.296875,0.484375 -0.5,0.640625 -0.734375,0.640625 -0.25,0 -0.359375,-0.15625 -0.515625,-0.328125 -0.1875,-0.21875 -0.359375,-0.421875 -0.6875,-0.421875 -0.75,0 -1.203125,0.921875 -1.203125,1.140625 0,0.046875 0.03125,0.109375 0.109375,0.109375 0.09375,0 0.109375,-0.046875 0.140625,-0.109375 0.1875,-0.46875 0.765625,-0.46875 0.84375,-0.46875 0.203125,0 0.390625,0.0625 0.625,0.140625 0.40625,0.15625 0.515625,0.15625 0.765625,0.15625 -0.359375,0.421875 -1.1875,1.140625 -1.375,1.296875 l -0.90625,0.84375 C 0.78125,-0.625 0.421875,-0.0625 0.421875,0.015625 c 0,0.09375 0.109375,0.09375 0.125,0.09375 0.078125,0 0.09375,-0.015625 0.15625,-0.125 0.234375,-0.359375 0.53125,-0.625 0.859375,-0.625 0.21875,0 0.328125,0.09375 0.578125,0.375 0.15625,0.21875 0.34375,0.375 0.625,0.375 1,0 1.578125,-1.265625 1.578125,-1.53125 0,-0.046875 -0.046875,-0.109375 -0.125,-0.109375 -0.09375,0 -0.109375,0.0625 -0.140625,0.140625 C 3.84375,-0.75 3.203125,-0.5625 2.875,-0.5625 c -0.1875,0 -0.375,-0.0625 -0.578125,-0.125 -0.34375,-0.125 -0.5,-0.171875 -0.703125,-0.171875 -0.015625,0 -0.171875,0 -0.265625,0.03125 z m 0,0"
               id="id-0dd0afe7-1ce5-49be-8c1e-0aca3c7279df" />
          </symbol>
          <symbol
             overflow="visible"
             id="id-35dd19e0-916a-4302-acc7-3c15a4e399df">
            <path
               style="stroke:none;stroke-width:0"
               d=""
               id="id-e8a13a75-ecc9-423e-a9cd-6418601e6586" />
          </symbol>
          <symbol
             overflow="visible"
             id="id-e56462fb-eb97-4b54-9b0a-ea7faf6799ab">
            <path
               style="stroke:none;stroke-width:0"
               d="m 6.84375,-3.265625 c 0.15625,0 0.34375,0 0.34375,-0.1875 C 7.1875,-3.65625 7,-3.65625 6.859375,-3.65625 h -5.96875 c -0.140625,0 -0.328125,0 -0.328125,0.203125 0,0.1875 0.1875,0.1875 0.328125,0.1875 z m 0.015625,1.9375 c 0.140625,0 0.328125,0 0.328125,-0.203125 0,-0.1875 -0.1875,-0.1875 -0.34375,-0.1875 H 0.890625 c -0.140625,0 -0.328125,0 -0.328125,0.1875 0,0.203125 0.1875,0.203125 0.328125,0.203125 z m 0,0"
               id="id-d0fc9388-964d-4061-ad4b-7489a23841ed" />
          </symbol>
          <symbol
             overflow="visible"
             id="id-8cad11b5-4e86-466b-947a-b6a16c5d5acf">
            <path
               style="stroke:none;stroke-width:0"
               d="m 4.578125,-3.1875 c 0,-0.796875 -0.046875,-1.59375 -0.390625,-2.328125 -0.453125,-0.96875 -1.28125,-1.125 -1.6875,-1.125 -0.609375,0 -1.328125,0.265625 -1.75,1.1875 -0.3125,0.6875 -0.359375,1.46875 -0.359375,2.265625 0,0.75 0.03125,1.640625 0.453125,2.40625 0.421875,0.796875 1.15625,1 1.640625,1 0.53125,0 1.296875,-0.203125 1.734375,-1.15625 0.3125,-0.6875 0.359375,-1.46875 0.359375,-2.25 z M 2.484375,0 C 2.09375,0 1.5,-0.25 1.328125,-1.203125 1.21875,-1.796875 1.21875,-2.71875 1.21875,-3.3125 c 0,-0.640625 0,-1.296875 0.078125,-1.828125 0.1875,-1.1875 0.9375,-1.28125 1.1875,-1.28125 0.328125,0 0.984375,0.1875 1.171875,1.171875 0.109375,0.5625 0.109375,1.3125 0.109375,1.9375 0,0.75 0,1.421875 -0.109375,2.0625 C 3.5,-0.296875 2.9375,0 2.484375,0 Z m 0,0"
               id="id-de712188-c160-418d-99db-2d30d308ff52" />
          </symbol>
        </g>
      </defs>
      <g
         id="id-f4bb511f-06eb-4e9f-923f-58aeac14245d"
         transform="translate(-149.228,-128.124)">
        <g
           style="fill:#000000"
           id="id-71d5abe4-a9f0-4303-8b6f-91e171008ecc">
          <g
             id="id-4a000557-d389-4400-b473-6ed513f6b485"
             transform="translate(148.712,134.765)">
            <path
               style="color:#000000;-inkscape-stroke:none"
               d="M 3.890625,-3.734375 C 3.625,-3.71875 3.421875,-3.5 3.421875,-3.28125 c 0,0.140625 0.09375,0.296875 0.3125,0.296875 0.21875,0 0.453125,-0.171875 0.453125,-0.5625 C 4.1875,-4 3.765625,-4.40625 3,-4.40625 c -1.3125,0 -1.6875,1.015625 -1.6875,1.453125 0,0.78125 0.734375,0.921875 1.03125,0.984375 0.515625,0.109375 1.03125,0.21875 1.03125,0.765625 0,0.25 -0.21875,1.09375 -1.421875,1.09375 -0.140625,0 -0.90625,0 -1.140625,-0.53125 0.390625,0.046875 0.640625,-0.25 0.640625,-0.53125 0,-0.21875 -0.171875,-0.34375 -0.375,-0.34375 -0.265625,0 -0.5625,0.203125 -0.5625,0.65625 0,0.5625 0.578125,0.96875 1.421875,0.96875 1.625,0 2.015625,-1.203125 2.015625,-1.65625 0,-0.359375 -0.1875,-0.609375 -0.3125,-0.71875 -0.265625,-0.28125 -0.5625,-0.34375 -1,-0.421875 -0.359375,-0.078125 -0.75,-0.15625 -0.75,-0.609375 C 1.890625,-3.578125 2.125,-4.1875 3,-4.1875 c 0.25,0 0.75,0.078125 0.890625,0.453125 z m 0,0"
               id="id-ea76f76a-709f-427a-91ba-74b3abe36aa5" />
          </g>
          <g
             id="id-d8f933bc-0dcb-404e-a653-b91ae47a1ed2"
             transform="translate(153.382,134.765)">
            <path
               style="color:#000000;-inkscape-stroke:none"
               d="m 1.328125,-0.828125 c 0.53125,-0.578125 0.828125,-0.828125 1.1875,-1.140625 0,0 0.609375,-0.53125 0.96875,-0.890625 C 4.4375,-3.78125 4.65625,-4.265625 4.65625,-4.3125 c 0,-0.09375 -0.09375,-0.09375 -0.109375,-0.09375 -0.078125,0 -0.09375,0.015625 -0.15625,0.109375 -0.296875,0.484375 -0.5,0.640625 -0.734375,0.640625 -0.25,0 -0.359375,-0.15625 -0.515625,-0.328125 -0.1875,-0.21875 -0.359375,-0.421875 -0.6875,-0.421875 -0.75,0 -1.203125,0.921875 -1.203125,1.140625 0,0.046875 0.03125,0.109375 0.109375,0.109375 0.09375,0 0.109375,-0.046875 0.140625,-0.109375 0.1875,-0.46875 0.765625,-0.46875 0.84375,-0.46875 0.203125,0 0.390625,0.0625 0.625,0.140625 0.40625,0.15625 0.515625,0.15625 0.765625,0.15625 -0.359375,0.421875 -1.1875,1.140625 -1.375,1.296875 l -0.90625,0.84375 C 0.78125,-0.625 0.421875,-0.0625 0.421875,0.015625 c 0,0.09375 0.109375,0.09375 0.125,0.09375 0.078125,0 0.09375,-0.015625 0.15625,-0.125 0.234375,-0.359375 0.53125,-0.625 0.859375,-0.625 0.21875,0 0.328125,0.09375 0.578125,0.375 0.15625,0.21875 0.34375,0.375 0.625,0.375 1,0 1.578125,-1.265625 1.578125,-1.53125 0,-0.046875 -0.046875,-0.109375 -0.125,-0.109375 -0.09375,0 -0.109375,0.0625 -0.140625,0.140625 C 3.84375,-0.75 3.203125,-0.5625 2.875,-0.5625 c -0.1875,0 -0.375,-0.0625 -0.578125,-0.125 -0.34375,-0.125 -0.5,-0.171875 -0.703125,-0.171875 -0.015625,0 -0.171875,0 -0.265625,0.03125 z m 0,0"
               id="id-c05f99f3-0c3d-4493-b697-8a00156e8cf5" />
          </g>
        </g>
        <g
           style="fill:#000000"
           id="id-ec28ec2a-ae5a-41be-86a0-d985b34ddc2e">
          <g
             id="id-2f328abd-b302-41f9-aeb3-4c2ab9a3b8a9"
             transform="translate(161.221,134.765)">
            <path
               style="color:#000000;-inkscape-stroke:none"
               d="m 6.84375,-3.265625 c 0.15625,0 0.34375,0 0.34375,-0.1875 C 7.1875,-3.65625 7,-3.65625 6.859375,-3.65625 h -5.96875 c -0.140625,0 -0.328125,0 -0.328125,0.203125 0,0.1875 0.1875,0.1875 0.328125,0.1875 z m 0.015625,1.9375 c 0.140625,0 0.328125,0 0.328125,-0.203125 0,-0.1875 -0.1875,-0.1875 -0.34375,-0.1875 H 0.890625 c -0.140625,0 -0.328125,0 -0.328125,0.1875 0,0.203125 0.1875,0.203125 0.328125,0.203125 z m 0,0"
               id="id-abece790-5e25-4df4-9d03-5467baea4e0e" />
          </g>
        </g>
        <g
           style="fill:#000000"
           id="id-d783ccac-7ba5-4c42-b6d7-9411f95bdccb">
          <g
             id="id-130d1162-6b3d-4284-83b9-3b01c884d42f"
             transform="translate(171.74,134.765)">
            <path
               style="color:#000000;-inkscape-stroke:none"
               d="m 4.578125,-3.1875 c 0,-0.796875 -0.046875,-1.59375 -0.390625,-2.328125 -0.453125,-0.96875 -1.28125,-1.125 -1.6875,-1.125 -0.609375,0 -1.328125,0.265625 -1.75,1.1875 -0.3125,0.6875 -0.359375,1.46875 -0.359375,2.265625 0,0.75 0.03125,1.640625 0.453125,2.40625 0.421875,0.796875 1.15625,1 1.640625,1 0.53125,0 1.296875,-0.203125 1.734375,-1.15625 0.3125,-0.6875 0.359375,-1.46875 0.359375,-2.25 z M 2.484375,0 C 2.09375,0 1.5,-0.25 1.328125,-1.203125 1.21875,-1.796875 1.21875,-2.71875 1.21875,-3.3125 c 0,-0.640625 0,-1.296875 0.078125,-1.828125 0.1875,-1.1875 0.9375,-1.28125 1.1875,-1.28125 0.328125,0 0.984375,0.1875 1.171875,1.171875 0.109375,0.5625 0.109375,1.3125 0.109375,1.9375 0,0.75 0,1.421875 -0.109375,2.0625 C 3.5,-0.296875 2.9375,0 2.484375,0 Z m 0,0"
               id="id-4d155b3b-09c6-4e77-a941-aa6ee7a4915d" />
          </g>
        </g>
      </g>
    </g>
  </g>
  <defs
     id="defs309">
    <clipPath
       id="pbed307b0b0">
      <rect
         height="311.81104"
         width="771.02362"
         x="0"
         y="0"
         id="rect312"
         style="stroke-linecap:square;stroke-linejoin:round" />
    </clipPath>
  </defs>
</svg>
